<?xml version="1.0" standalone="no"?>
<!DOCTYPE svg PUBLIC "-//W3C//DTD SVG 20010904//EN"
 "http://www.w3.org/TR/2001/REC-SVG-20010904/DTD/svg10.dtd">
<svg version="1.0" xmlns="http://www.w3.org/2000/svg"
 width="110.000000pt" height="110.000000pt" viewBox="0 0 498.000000 501.000000"
 preserveAspectRatio="xMidYMid meet">

<g transform="translate(0.000000,501.000000) scale(0.100000,-0.100000)"
fill="#FFFFFF" stroke="none">
<path d="M2165 4960 c-429 -59 -746 -187 -1155 -467 -46 -32 -222 -186 -289
-253 -500 -505 -765 -1218 -711 -1915 17 -226 48 -382 123 -625 38 -124 177
-423 235 -507 11 -15 39 -57 62 -93 151 -228 418 -500 630 -643 14 -9 44 -30
68 -47 23 -16 45 -30 47 -30 3 0 29 -16 59 -35 111 -71 370 -186 516 -228 141
-42 173 -49 290 -72 199 -37 419 -50 623 -36 239 17 514 70 685 132 31 11 68
24 82 29 75 24 240 103 384 185 271 152 567 436 752 720 409 628 521 1436 298
2155 -116 374 -324 724 -597 1002 -349 355 -779 591 -1267 697 -248 53 -582
66 -835 31z m515 -40 c252 -18 507 -79 739 -175 88 -36 268 -127 314 -159 21
-14 40 -26 43 -26 4 0 52 -32 108 -71 565 -399 937 -1016 1021 -1694 20 -163
21 -438 1 -610 -41 -354 -154 -697 -328 -989 -55 -93 -144 -221 -176 -255 -8
-8 -31 -37 -52 -65 -53 -69 -242 -251 -338 -323 -402 -303 -847 -462 -1381
-492 -522 -29 -1027 105 -1466 390 -365 237 -667 578 -859 970 -69 141 -77
162 -132 329 -105 316 -141 701 -99 1045 30 246 90 459 193 690 274 615 810
1104 1443 1315 321 108 626 146 969 120z"/>
<path d="M2273 4653 c-62 -4 -63 -4 -63 -33 l0 -30 250 0 250 0 0 -24 c0 -21
-6 -24 -77 -36 -43 -6 -123 -20 -178 -30 -55 -10 -124 -21 -152 -25 l-53 -7 0
-54 c0 -50 2 -54 28 -60 15 -3 54 -14 87 -24 33 -11 79 -24 103 -30 56 -14 54
-34 -8 -62 -30 -14 -50 -29 -50 -39 0 -9 29 -42 64 -73 53 -46 70 -56 101 -56
l37 0 -46 52 c-25 29 -46 55 -46 58 0 3 23 18 51 33 57 33 83 31 125 -8 15
-14 33 -26 40 -26 8 -1 20 -2 27 -3 8 -1 18 43 32 139 l20 140 40 -4 c86 -7
145 -60 131 -116 -6 -24 -9 -25 -56 -19 l-50 7 0 -36 c0 -41 10 -47 85 -47 74
0 98 26 111 118 6 48 4 53 -23 81 -17 16 -43 33 -59 36 -126 26 -169 42 -172
63 -3 18 2 22 23 22 60 0 364 -94 372 -115 2 -7 -23 -80 -56 -164 l-60 -153
32 -13 c67 -27 63 -31 129 118 34 76 70 143 80 148 14 7 29 3 62 -16 24 -14
46 -31 49 -38 3 -7 28 -44 57 -81 64 -83 59 -97 -28 -77 -93 21 -97 21 -100
-18 -6 -60 4 -77 70 -114 72 -41 157 -121 184 -175 11 -20 36 -60 57 -88 20
-28 37 -56 37 -63 0 -21 13 -10 125 114 60 66 112 122 117 123 5 2 15 -2 24
-8 8 -7 16 -11 18 -9 38 50 38 51 -6 92 -127 114 -377 290 -558 393 l-103 58
24 19 c41 33 121 9 252 -77 29 -18 90 -57 135 -85 79 -49 85 -51 98 -34 7 10
14 21 14 24 1 23 -395 262 -465 281 -61 17 -113 3 -155 -41 l-35 -37 -70 24
c-120 40 -260 72 -388 87 -134 15 -386 25 -484 18z m442 -278 c-4 -47 -11 -85
-17 -85 -5 0 -40 13 -76 29 -37 16 -93 39 -124 51 -32 12 -58 25 -58 30 0 4
19 11 43 15 23 4 74 15 112 25 72 19 117 28 124 23 2 -1 0 -41 -4 -88z m972
-198 c66 -45 173 -143 173 -158 0 -5 -5 -9 -11 -9 -16 0 -161 80 -180 99 -19
18 -61 111 -51 111 4 0 35 -20 69 -43z m18 -159 c111 -55 111 -54 65 -108
l-39 -44 -96 98 c-52 54 -95 101 -95 103 0 14 95 -14 165 -49z"/>
<path d="M1544 4462 c-23 -9 -56 -28 -74 -42 l-32 -25 30 -57 c17 -31 28 -59
25 -62 -4 -3 -38 -6 -77 -6 -120 -1 -233 -66 -277 -161 -22 -45 -26 -48 -72
-54 -27 -4 -80 -23 -118 -42 -56 -28 -80 -48 -122 -101 -52 -66 -167 -228
-167 -236 0 -3 -22 -42 -48 -88 -231 -400 -346 -824 -328 -1208 8 -168 48
-425 70 -447 5 -5 76 16 76 22 0 2 -5 16 -10 31 -25 64 -43 245 -44 429 l-1
190 44 3 c71 5 75 0 45 -58 -35 -66 -31 -139 9 -192 l27 -35 -20 -44 c-34 -75
-19 -217 28 -271 30 -35 176 -13 217 32 27 30 33 71 17 120 -18 55 -24 62 -45
54 -11 -4 -17 -18 -17 -39 0 -39 -38 -75 -79 -75 -47 0 -71 33 -71 100 0 51
34 90 80 90 29 0 30 1 30 50 l0 50 -45 0 c-39 0 -46 4 -60 30 -20 39 -18 90 4
118 17 20 28 22 105 22 l86 0 0 33 c0 17 3 42 6 53 5 20 1 22 -58 29 -63 6
-233 32 -276 41 -26 5 -29 37 -10 110 15 54 -2 54 203 0 77 -20 145 -36 151
-36 10 0 40 88 32 95 -2 2 -50 15 -108 30 -58 14 -135 35 -172 47 -65 19 -68
21 -61 46 15 61 31 97 44 95 8 -1 64 -22 124 -47 179 -73 231 -62 295 67 29
57 30 63 13 74 -28 21 -38 15 -63 -34 -27 -54 -36 -63 -68 -63 -22 0 -248 93
-265 110 -5 4 8 42 27 84 l36 77 33 -23 c17 -12 65 -46 106 -75 l73 -53 32 27
c31 27 33 33 39 117 4 49 7 111 7 138 0 26 2 48 4 48 2 0 43 -20 92 -45 l88
-44 33 36 c19 20 32 37 31 39 -18 16 -213 164 -218 164 -3 0 -24 -19 -47 -42
l-41 -43 -12 -120 c-7 -66 -16 -128 -19 -137 -5 -15 -17 -10 -84 35 -42 28
-77 58 -77 65 0 13 4 21 68 122 59 95 113 172 186 267 89 115 141 144 194 107
37 -26 30 -78 -16 -125 -29 -28 -36 -42 -30 -54 10 -17 81 -65 97 -65 37 0
121 118 121 170 0 13 11 20 38 25 81 15 182 81 165 108 -5 7 -19 29 -32 50
-12 20 -27 37 -31 37 -5 0 -20 -15 -34 -33 -14 -18 -37 -39 -50 -47 -22 -11
-29 -10 -51 4 -38 25 -34 67 10 107 119 109 252 81 343 -72 12 -20 22 -44 22
-53 0 -21 14 -20 53 2 18 9 34 18 36 19 4 2 -55 150 -100 250 -36 81 -36 92 1
104 35 13 36 16 13 64 -19 40 -22 40 -79 17z"/>
<path d="M2355 4043 c-223 -29 -464 -110 -623 -210 -29 -18 -55 -33 -58 -33
-3 0 -28 -17 -54 -37 -27 -21 -63 -49 -82 -63 -55 -42 -192 -181 -249 -254
-157 -202 -270 -451 -321 -709 -31 -159 -31 -444 1 -602 77 -392 277 -726 583
-972 219 -176 489 -290 776 -327 145 -19 208 -20 340 -5 444 48 826 264 1097
619 248 325 367 755 321 1156 -46 394 -204 724 -477 994 -290 287 -696 453
-1097 449 -70 -1 -140 -4 -157 -6z m285 -53 c181 -14 341 -57 510 -136 221
-105 373 -223 529 -409 343 -411 453 -982 286 -1498 -174 -542 -630 -946
-1184 -1048 -146 -27 -378 -26 -527 1 -480 88 -892 407 -1105 854 -290 612
-163 1335 317 1808 248 244 586 402 914 428 137 10 134 10 260 0z"/>
<path d="M2285 3809 c-77 -33 -214 -92 -305 -130 -91 -39 -174 -74 -185 -79
-11 -5 -63 -27 -115 -49 l-95 -40 890 0 c1017 0 931 -13 660 93 -241 93 -578
226 -627 246 -26 11 -55 20 -65 19 -10 0 -81 -27 -158 -60z"/>
<path d="M2249 3360 c-22 -9 -27 -20 -37 -74 -16 -87 -15 -106 6 -107 9 0 -12
-11 -48 -23 -36 -13 -93 -37 -126 -54 -43 -21 -61 -27 -60 -17 0 7 -26 34 -58
59 -67 53 -49 57 -148 -32 -26 -23 -51 -42 -55 -42 -5 0 -80 60 -168 134 -88
73 -161 132 -163 131 -9 -7 32 -143 47 -155 10 -8 61 -50 114 -92 52 -42 98
-81 101 -87 3 -5 -8 -32 -25 -60 l-32 -51 47 -59 c43 -56 55 -88 39 -105 -5
-4 -20 -40 -34 -79 l-26 -72 -77 -5 c-42 -4 -82 -12 -88 -18 -16 -16 -18 -376
-3 -391 11 -11 92 -29 147 -33 24 -2 30 -10 45 -53 9 -27 29 -75 45 -105 32
-63 32 -61 16 -55 -13 5 -98 -103 -98 -124 0 -14 101 -136 154 -184 22 -21 60
-52 84 -69 l43 -29 57 49 c31 27 63 52 69 56 7 4 43 -6 80 -22 38 -17 83 -33
102 -37 18 -4 29 -10 24 -14 -9 -5 1 -158 11 -169 2 -2 52 -8 110 -14 125 -12
253 1 272 27 11 15 30 130 28 161 -1 7 17 17 40 24 22 7 67 26 100 42 32 16
61 27 64 24 3 -3 2 -6 -2 -6 -5 0 20 -24 54 -52 34 -29 64 -53 65 -53 6 0 79
59 121 98 23 20 44 37 47 37 3 0 0 -14 -6 -30 -11 -30 -10 -32 47 -83 l59 -52
-79 -37 c-207 -96 -269 -125 -399 -187 -77 -37 -166 -78 -197 -91 -32 -13 -56
-25 -54 -28 2 -2 33 -9 67 -17 l64 -13 327 110 c179 60 389 130 465 156 l138
48 7 99 c4 55 14 174 22 265 9 91 23 253 31 360 9 107 22 265 30 350 8 85 19
217 25 293 12 161 25 197 70 197 25 0 30 4 30 24 0 28 -16 36 -77 36 -36 0
-50 -6 -73 -28 -33 -34 -42 -63 -69 -242 -12 -74 -37 -232 -56 -350 -18 -118
-41 -264 -50 -325 -9 -60 -25 -157 -35 -215 -10 -58 -21 -126 -25 -152 -3 -27
-9 -48 -12 -48 -9 0 -163 131 -163 139 0 15 -77 110 -84 104 -8 -8 -6 -3 42
112 l29 70 60 3 60 3 7 46 c10 73 7 260 -5 329 l-11 64 -58 16 c-56 16 -59 18
-78 68 -11 28 -26 65 -32 82 -13 29 -11 34 38 98 l51 68 -27 37 c-64 87 -109
139 -163 185 -85 73 -79 73 -153 16 -36 -27 -69 -50 -74 -50 -4 0 -28 10 -53
22 -24 12 -73 32 -109 44 -36 12 -57 23 -47 23 15 1 17 8 12 54 -12 106 -15
115 -38 122 -37 12 -310 15 -338 5z m148 -507 c-4 -108 -7 -261 -7 -340 l0
-143 -105 0 c-80 0 -105 3 -105 13 0 20 59 44 125 52 l58 8 -28 14 c-37 20
-108 12 -146 -16 -30 -22 -47 -14 -30 16 21 39 79 83 139 106 61 23 62 24 37
35 -52 24 -85 15 -132 -33 -38 -40 -43 -43 -43 -23 0 28 53 134 83 167 12 13
40 37 61 52 21 16 35 29 29 29 -22 0 -139 -52 -159 -71 l-23 -22 -3 64 -3 64
-20 -30 c-15 -22 -20 -46 -20 -92 0 -35 -1 -63 -2 -63 -2 0 -21 17 -43 39 -55
53 -113 61 -147 20 -9 -11 -5 -14 17 -16 83 -6 190 -108 190 -180 0 -43 -11
-42 -38 6 -28 50 -73 71 -149 70 -47 -1 -52 -2 -28 -9 56 -13 103 -38 143 -74
41 -38 57 -74 47 -107 -6 -18 -18 -19 -182 -19 l-176 0 6 58 c31 289 217 515
492 596 68 21 84 23 129 25 l39 1 -6 -197z m231 163 c112 -38 179 -82 267
-171 115 -116 179 -251 192 -401 l6 -74 -217 0 -216 0 0 35 c0 73 45 119 92
94 18 -9 16 -5 -9 23 -39 40 -43 55 -9 32 14 -8 33 -17 43 -18 11 -2 19 -13
21 -30 2 -14 7 -24 12 -21 5 3 11 -9 15 -26 6 -24 9 -28 17 -18 6 9 11 10 14
3 3 -6 11 -20 18 -30 13 -17 14 -14 14 31 -1 28 -4 52 -9 55 -4 3 -11 18 -14
33 -6 22 -4 27 12 27 10 0 29 -7 41 -16 21 -14 22 -14 22 10 0 17 -10 33 -30
48 -19 14 -30 31 -30 47 0 41 -37 71 -87 71 -37 0 -44 3 -41 18 2 12 16 19 42
22 38 5 39 6 22 23 -23 22 -37 22 -70 -4 -33 -26 -40 -22 -21 14 17 33 9 34
-22 5 l-23 -21 0 25 c0 14 7 31 15 38 15 12 12 30 -5 30 -12 0 -44 -62 -61
-118 l-13 -43 -13 51 c-7 28 -20 63 -28 78 -15 26 -16 25 -10 -32 7 -61 -8
-73 -20 -17 -3 16 -12 35 -20 41 -10 8 -9 -2 4 -37 22 -57 33 -133 20 -133 -5
0 -9 5 -9 10 0 6 -10 10 -22 10 l-21 0 21 -23 c22 -23 30 -57 13 -57 -5 0 -15
7 -22 16 -12 15 -15 14 -31 -6 -27 -33 -24 -58 6 -53 27 6 47 -23 61 -84 3
-18 11 -35 16 -38 5 -4 9 -19 9 -36 l0 -29 -65 0 -65 0 0 123 c0 67 3 220 7
341 l6 218 51 -6 c28 -3 84 -17 124 -30z m458 -756 c-17 -151 -83 -279 -202
-397 -92 -90 -195 -149 -313 -179 -91 -23 -272 -15 -363 15 -182 61 -352 222
-418 397 -20 55 -50 179 -50 210 0 12 96 14 676 14 l677 0 -7 -60z"/>
<path d="M2659 2240 l-4 -45 -129 -63 c-111 -55 -130 -62 -138 -48 -5 9 -22
16 -38 16 -28 0 -30 3 -30 35 0 28 4 35 20 35 14 0 20 7 20 21 0 17 -5 20 -32
17 -32 -3 -33 -4 -36 -55 -3 -49 -5 -53 -28 -53 -21 0 -24 5 -24 35 0 29 -5
38 -27 48 -16 6 -32 17 -36 24 -9 15 -47 17 -47 3 0 -5 -9 -10 -19 -10 -11 0
-21 -6 -23 -12 -3 -8 -19 -12 -42 -10 -28 3 -41 -2 -56 -20 -28 -33 -26 -90 5
-126 16 -20 25 -42 25 -65 0 -33 -3 -36 -32 -40 -26 -3 -23 -4 14 -5 26 -1 50
-6 53 -12 10 -17 75 -12 75 5 0 22 27 18 33 -5 6 -25 29 -34 62 -26 20 5 25
13 25 36 0 23 5 30 19 30 13 0 19 -6 19 -17 -3 -41 14 -93 35 -108 26 -18 91
-20 105 -2 6 6 13 24 17 40 9 32 28 35 49 6 10 -16 12 -28 5 -46 -13 -36 -12
-36 20 -14 16 12 38 21 50 21 15 0 23 10 30 38 20 69 15 87 -26 101 -43 16
-83 40 -83 50 0 4 34 33 75 65 70 53 105 65 105 36 0 -5 11 -10 24 -10 18 0
27 8 35 30 9 28 13 30 59 30 34 0 52 5 55 14 8 22 -2 26 -60 26 -29 0 -53 4
-53 8 0 5 -13 7 -29 4 -27 -4 -30 -1 -33 29 -4 31 -4 31 -9 -11z"/>
<path d="M2811 1993 c-21 -14 -32 -15 -79 -5 -60 13 -76 9 -48 -11 16 -12 16
-14 2 -26 -9 -7 -25 -11 -36 -8 -15 4 -22 -1 -26 -19 -4 -14 -5 -27 -3 -29 2
-2 27 8 54 21 35 17 60 23 84 20 36 -5 68 7 88 33 29 38 6 54 -36 24z"/>
<path d="M4392 3434 c-21 -14 -22 -18 -8 -33 21 -23 62 -118 102 -234 42 -123
43 -137 7 -137 -24 1 -36 14 -84 88 -192 299 -201 311 -218 299 -9 -7 -30 -22
-47 -35 l-30 -23 17 -122 c34 -245 49 -363 49 -387 0 -14 4 -31 9 -39 10 -16
15 -15 247 55 61 19 113 34 117 34 3 0 11 -26 17 -57 6 -32 14 -66 16 -75 4
-13 0 -18 -13 -18 -38 0 -94 -22 -120 -46 -47 -44 -81 -57 -140 -52 l-53 5 0
-53 c0 -44 4 -54 25 -68 13 -9 36 -16 50 -16 29 0 103 35 154 74 38 29 92 34
110 12 6 -7 12 -51 14 -97 l2 -84 -150 -6 c-82 -4 -160 -7 -172 -8 -20 -1 -23
-7 -23 -41 l0 -40 180 0 180 0 0 -40 c0 -37 2 -40 27 -40 l26 0 -7 143 c-17
367 -73 642 -190 930 -57 140 -56 138 -94 111z m-88 -318 c99 -120 115 -141
108 -147 -7 -7 -89 -33 -133 -43 -26 -6 -26 -4 -33 56 -3 33 -6 95 -6 137 1
69 2 74 15 57 8 -11 30 -38 49 -60z"/>
<path d="M4281 2073 c-14 -94 -22 -105 -75 -101 l-41 3 -17 -63 -17 -63 25 -9
c37 -14 97 -12 120 4 26 18 39 64 56 193 13 100 13 102 -7 107 -11 3 -23 6
-26 6 -4 0 -12 -35 -18 -77z"/>
<path d="M4483 2110 c-12 -5 -26 -18 -32 -29 -19 -35 -51 -184 -51 -238 0 -48
3 -54 30 -68 41 -21 132 -20 158 3 21 18 43 91 63 208 15 90 7 106 -61 122
-59 14 -77 14 -107 2z m101 -122 c19 -26 21 -80 4 -111 -26 -49 -70 -60 -106
-27 -27 25 -30 103 -6 138 21 31 87 31 108 0z"/>
<path d="M738 1929 c-48 -25 -78 -64 -78 -103 0 -19 22 -70 55 -130 30 -55 55
-103 55 -107 0 -16 18 -18 39 -3 l22 16 -36 63 c-43 78 -44 105 -5 139 l31 26
-16 46 c-25 75 -25 75 -67 53z"/>
<path d="M435 1790 c-68 -26 -80 -48 -64 -114 16 -68 52 -138 97 -188 36 -40
37 -40 95 -35 82 7 100 26 95 97 -8 99 -102 261 -152 259 -11 0 -43 -9 -71
-19z m128 -112 c19 -24 31 -52 34 -82 5 -41 3 -46 -20 -57 -41 -19 -75 -3
-107 48 -31 49 -39 100 -18 121 25 25 79 10 111 -30z"/>
<path d="M4049 1509 c-101 -106 -185 -195 -187 -199 -2 -5 38 -39 87 -76 50
-38 91 -72 91 -77 0 -16 -105 -146 -118 -147 -24 0 -71 30 -77 50 -4 13 2 34
16 57 22 35 22 36 4 49 -27 20 -29 19 -61 -28 -38 -55 -40 -115 -4 -153 23
-25 116 -85 132 -85 5 0 33 35 64 78 68 92 104 132 119 132 6 0 19 -6 29 -13
16 -12 12 -20 -50 -97 -38 -47 -81 -98 -96 -115 -33 -35 -33 -38 -12 -56 14
-11 21 -8 53 27 127 140 224 274 322 444 57 99 129 243 129 257 0 9 -40 37
-45 31 -1 -2 -17 -37 -34 -78 -68 -160 -179 -349 -206 -350 -5 0 -17 4 -25 10
-12 7 -9 21 18 87 59 144 112 330 112 393 0 17 -44 50 -68 50 -4 0 -91 -86
-193 -191z m151 24 c0 -7 -28 -88 -82 -236 -16 -44 -25 -57 -37 -52 -24 9
-100 69 -101 79 0 5 42 51 93 103 50 52 94 98 95 103 4 12 32 13 32 3z"/>
<path d="M880 1479 c-41 -27 -85 -55 -97 -62 -81 -45 -163 -100 -163 -110 0
-21 94 -160 172 -252 82 -98 246 -260 346 -343 35 -29 65 -52 67 -52 2 0 9 9
15 19 9 17 0 29 -71 88 -192 160 -218 185 -254 238 -35 50 -37 57 -23 71 19
19 3 28 241 -138 92 -65 171 -118 175 -118 13 0 72 65 72 79 0 7 -35 76 -77
154 -42 78 -96 178 -119 222 -24 44 -49 79 -55 77 -7 -2 -33 -19 -58 -38 -25
-20 -91 -69 -146 -110 l-100 -74 -17 22 c-25 32 -71 109 -66 112 1 1 64 40
138 86 74 46 139 87 143 91 8 6 -32 90 -43 88 -3 0 -39 -23 -80 -50z m290
-365 c33 -69 60 -130 60 -135 0 -5 -63 22 -140 61 -77 39 -140 72 -140 75 0 7
144 125 152 125 4 0 35 -57 68 -126z"/>
<path d="M1539 741 c-23 -24 -29 -38 -29 -73 0 -58 18 -89 62 -111 111 -54
209 84 127 178 -28 31 -36 35 -81 35 -41 0 -54 -5 -79 -29z"/>
<path d="M3560 757 c-31 -16 -70 -73 -70 -103 0 -61 60 -124 117 -124 32 0 84
39 99 76 21 50 2 110 -45 141 -38 26 -65 28 -101 10z"/>
<path d="M1914 599 c-51 -14 -78 -52 -78 -110 0 -42 5 -54 31 -81 27 -26 39
-31 79 -31 40 0 51 4 75 31 48 54 50 107 6 157 -27 31 -72 44 -113 34z"/>
<path d="M3153 590 c-28 -11 -63 -66 -63 -98 0 -38 30 -92 61 -107 56 -29 114
-13 150 41 25 38 24 78 -2 121 -31 49 -88 66 -146 43z"/>
</g>
</svg>
