<svg xmlns="http://www.w3.org/2000/svg" xmlns:xlink="http://www.w3.org/1999/xlink" viewBox="0 0 96.14 108.213" height="408.995" width="363.363" xmlns:v="https://vecta.io/nano"><style><![CDATA[.B{fill:#115786}.C{fill:none}.D{stroke:#115786}.E{stroke-width:.4}.F{stroke-miterlimit:10}.G{fill:#007547}]]></style><defs><clipPath id="A"><path d="M0 841.89h595.28V0H0z"/></clipPath><clipPath id="B"><path d="M284.864 620.247h.289v-40.202h-.289z"/></clipPath><clipPath id="C"><path d="M245.317 579.433h78.815v-.302h-78.815z"/></clipPath><path id="D" d="M213.943 453.497c-.249.087-.64.173-1.175.257l-1.837.226-2.175.158-2.163.066c-.681.004-1.282-.013-1.802-.052s-.898-.106-1.134-.199c.427-.315.863-.704 1.306-1.167s.876-.972 1.299-1.529.818-1.141 1.188-1.753l.993-1.84c.292-.615.521-1.21.688-1.785a6.32 6.32 0 0 0 .264-1.603zm3.145.905a12.93 12.93 0 0 0 2.8-2.261c.813-.871 1.448-1.806 1.906-2.804s.7-2.029.727-3.093-.219-2.12-.735-3.166c-.212-.43-.515-.832-.909-1.207a5.02 5.02 0 0 0-1.333-.911c-.495-.232-1.012-.369-1.552-.41a2.95 2.95 0 0 0-1.559.307c-.397.196-.86.563-1.386 1.102s-.971 1.21-1.333 2.017l2.091.85c.471-1.023.906-1.632 1.304-1.828a1.32 1.32 0 0 1 .772-.129c.271.035.523.128.757.281s.446.334.64.546.343.426.449.641c.341.691.483 1.435.425 2.23a6.58 6.58 0 0 1-.608 2.312c-.348.746-.813 1.429-1.395 2.047s-1.225 1.1-1.928 1.447l-.107.053-7.831-15.877-2.171 1.071 1.68 3.405c.048.51 0 1.118-.147 1.823s-.366 1.455-.658 2.25a22.48 22.48 0 0 1-1.065 2.424c-.419.822-.874 1.59-1.365 2.302a21.49 21.49 0 0 1-1.546 1.991c-.54.615-1.298 1.087-2.275 1.418l-.08 2.653c2.515.421 4.967.582 7.357.483s4.692-.397 6.904-.896l.878 1.779-14.906 7.352.981 1.99 27.29-13.459-.982-1.99-10.212 5.037z"/><path id="E" d="M198.641 435.93l8.047 1.795 1.464 1.725.166-3.825-5.572-1.272 6.279-8.689-2.106-1.306z"/><path id="F" d="M232.906 450.024c.947-.73 2.051-1.873 3.313-3.426s2.69-3.549 4.283-5.985l2.029 6.323zm6.551-12.669c-.22.617-.603 1.404-1.149 2.362l-2.068 3.347c-1.237-.359-2.355-.747-3.354-1.165s-1.914-.859-2.744-1.326c3.551-1.544 6.119-4.288 7.706-8.232zm-2.769-8.63c-.579 1.619-1.149 2.994-1.71 4.127s-1.174 2.09-1.834 2.877-1.382 1.431-2.164 1.933-1.671.93-2.667 1.283l-1.119 2.984c.574.341 1.484.76 2.73 1.257s2.857 1.075 4.834 1.731c-.641.83-1.49 1.783-2.546 2.86s-2.33 2.309-3.819 3.695l-1.525.489.678 2.113 21.425-6.874-.678-2.113-3.457 1.109-6.688-20.843-2.305.739z"/><path id="G" d="M273.182 436.971c-.263-.005-.66-.062-1.191-.17l-1.799-.431-2.093-.613-2.049-.697-1.67-.679c-.474-.219-.804-.413-.993-.583.511-.146 1.055-.358 1.632-.636s1.161-.604 1.752-.978a20.02 20.02 0 0 0 1.726-1.226l1.575-1.376a11.73 11.73 0 0 0 1.269-1.432c.357-.481.626-.95.808-1.408zm2.629 1.949c1.211-.227 2.35-.606 3.415-1.138s1.988-1.185 2.767-1.959 1.366-1.657 1.763-2.644.537-2.062.42-3.223c-.048-.477-.191-.96-.429-1.448s-.548-.929-.93-1.32a4.4 4.4 0 0 0-1.31-.927c-.492-.228-1.014-.314-1.568-.258-.441.044-1.003.226-1.684.547s-1.333.794-1.955 1.421l1.662 1.529c.799-.793 1.42-1.211 1.861-1.256.271-.027.527.023.769.15s.444.304.61.528a3.31 3.31 0 0 1 .408.736c.107.267.172.519.197.757.077.767-.051 1.513-.383 2.238s-.792 1.375-1.379 1.953a7.78 7.78 0 0 1-2.023 1.429c-.762.375-1.533.602-2.313.681l-.119.012-1.778-17.613-2.408.242.382 3.778c-.134.495-.392 1.047-.776 1.657s-.852 1.235-1.404 1.877-1.168 1.274-1.847 1.898a20.25 20.25 0 0 1-2.083 1.678c-.71.496-1.425.937-2.145 1.324s-1.597.564-2.628.532l-1.003 2.457c2.207 1.275 4.448 2.284 6.722 3.028s4.534 1.27 6.781 1.577l.199 1.975-16.536 1.668.223 2.208 30.274-3.056-.223-2.207-11.329 1.143z"/><path id="H" d="M323.524 443.433l2.189-9.854c1.158 2.231 2.566 4.078 4.226 5.541s3.634 2.549 5.92 3.26l2.322-.941c-.487-1.421-.72-2.913-.699-4.477a23.04 23.04 0 0 1 .558-4.71c.277-1.251.64-2.477 1.088-3.679a33.2 33.2 0 0 1 1.51-3.458l-2.098-.851c-.635 1.022-1.186 2.14-1.654 3.354s-.844 2.467-1.132 3.758c-.304 1.373-.501 2.756-.59 4.151a22.76 22.76 0 0 0 .103 4.096c-1.956-.68-3.63-1.887-5.019-3.62s-2.611-3.88-3.661-6.439l-2.709 1.111-2.717 12.233-3.627-.806-.482 2.166 21.068 4.68.481-2.166z"/><path id="I" d="M354.166 454.716l3.068 1.405.744-.107a6.83 6.83 0 0 0 .74-.185l.864-.31 1.109-.48-2.49 5.442 2.201 1.007 1.483-3.239 3.798 1.738.922-2.018-3.796-1.737 9.109-19.906-2.201-1.007-7.783 17.007c-.596.563-1.28.978-2.05 1.244s-1.579.336-2.423.214l-2.372-1.086z"/></defs><g clip-path="url(#A)" transform="matrix(.352778 0 0 -.352778 -53.836276 255.27083)"><g class="G"><path d="M179.272 536.496c3.729-3.814 6.172 0 6.172 0 .367 5.353-4.635 8.556-4.635 8.556-4.395.643-4.189-2.65-4.189-2.65 0-2.635 2.652-5.906 2.652-5.906m-7.044 8.472s-.668 3.882 7.877 5.093c.271.016.739.083 1.105-.016 0 0 .101 0 .769-.486 1.18-.893 3.198-2.951 5.001-7.71 0 0 4.758-8.33.474-10.553 0 0-5.641-2.889-8.257-.193 0 0-6.042 5.3-6.969 13.865m220.708 5.671c.745-4.3 6.574-3.506 6.574-3.506 5.84-.683 5.84 3.607 5.84 3.607l2.425 11.073c.725 4.08-2.795 4.4-2.795 4.4-5.972 1.89-8.498-.068-8.498-.068-2.917-6.623-3.546-15.506-3.546-15.506m5.138 9.794s3.624 1.78 5.687-1.288c0 0 1.822-5.922-2.56-7.703 0 0-3.767-1.005-4.479 3.061 0 0-.507 3.764 1.352 5.93"/><path d="M198.322 538.562l-3.732 6.732s-1.974 3.671 3.382 5.446l-2.762 7.042s-5.577-1.68-6.438-5.679c0 0-.988-2.318 1.668-6.356l4.963-9.018zm188.999 30.418l-1.074-7.819c-.862-5.578-12.178 1.446-5.772-1.706l-1.972-7.385s5.215-2.676 8.183-.302c0 0 2.152 1.071 2.431 6.09l1.48 10.41zm-180.157 15.297c0 46.925 37.358 85.104 83.274 85.104 45.909 0 83.263-38.179 83.263-85.104 0-46.964-37.354-85.169-83.263-85.169-45.916 0-83.274 38.205-83.274 85.169m-3.233 0c0-48.745 38.804-88.402 86.507-88.402 47.691 0 86.497 39.657 86.497 88.402 0 48.706-38.806 88.336-86.497 88.336-47.703 0-86.507-39.63-86.507-88.336m34.152 58.401l48.289 20.389 51.954-20.389z"/></g><g fill="#231f20"><path d="M287.057 580.312h0v-.041z"/><path d="M287.057 580.271z"/><path d="M287.057 580.271v.041z"/><path d="M287.057 580.312z"/><path d="M287.057 580.271v.041z"/><path d="M287.057 580.271zm0 0z"/><path d="M287.057 580.271h0v.041z"/><path d="M287.07 580.312h-.013z"/><path d="M287.057 580.312zm0 0zm0 0z"/><path d="M287.057 580.312l.013-.041-.013.041v-.041z"/><path d="M287.057 580.271zm0 0z"/><path d="M287.057 580.312h0v-.041z"/><path d="M287.057 580.271h.013l-.013.041z"/><path d="M287.057 580.271v.041z"/><path d="M287.057 580.312z"/><path d="M287.057 580.271v.041z"/><path d="M287.057 580.271v.041z"/><path d="M287.057 580.271zm-40.543-.687h80.704"/></g><g class="G"><path d="M220.202 504.13l-7.175 14.879-8.476-7zm.241-14.928l-1.878-2.442s-24.363 18.984-32.528 36.163l19.396 12.018 2.91-4.791-16.259-10.254 4.398-6.868 17.286 12.63 13.884-25.548-4.29-4.912-21.847 15.324-1.878-1.367c4.298-6.798 4.792-6.731 20.806-19.953m-43.998 68.42l-4.566-1.372s-8.924 25.326-.187 57.531c0 0 7.67 29.588 28.085 53.776 0 0 5.081 5.171 13.835 5.688 0 0 3.262 13.138 20.885 11.532l-3.29 6.456s2.207 3.23 9.366 5.092l2.276-4.857-3.992-1.881 7.766-18.241-4.862-2.694s-4.373 14.629-15.883 11.151c0 0-8.754-3.859-5.828-7.972 0 0 2.312-3.07 5.586 1.02l2.528 3.093 4.014-6.078s-4.224-5.721-11.275-5.721c0 0-.752-8.054-7.291-10.512 0 0-4.736 1.998-5.837 4.942 0 0 5.107 2.458 4.382 7.31 0 0-2.325 4.457-7.679.256 0 0-9.935-11.295-18.1-26.3l8.864-6.196 1.616 15.489 4.959 4.598 12.398-9.431-3.897-4.242-9.951 4.993-.59-15.013-3.897-3.119-11.406 8.195-3.997-8.47 12.742-5.563s3.128-1.839 4.837.995l2.311 4.97 3.293-1.333s-3.18-11.933-10.222-10.444c0 0-9.082 2.342-15.045 5.948l-2.179-7.084 19.417-5.312-1.437-5.712-19.196 4.833s-1.607-3.713-1.445-8.211l19.746-2.845-.831-6.054-8.851.242s-4.376-2.768-1.603-7.711c0 0 .622-1.508 2.46-1.747l3.393.239-.134-5.468s-7.256.144-5.955-6.212c0 0 0-4.942 4.508-4.082 0 0 3.281.76 3.281 2.995l-.134 3.102 2.804.501 1.586-4.589s1.926-5.964-5.836-7.972c0 0-6.694-2.459-8.489 1.638 0 0-4.5 8.556.109 15.665l.101.838s-5.063 4.105-2.787 10.662l2.32 4.381h-6.069s-1.118-23.306 3.273-35.693m218.062 55.775l-9.968 12.11.611-14.778zm7.278-3.964l-20.042-5.837-4.11 31.186 5.185 4.058 14.476-22.112 2.425.098-.139 2.434s-4.434 14.52-7.983 18.833l3.414 2.167s9.567-19.352 11.889-38.965c0 0 2.435-18.55 2.184-27.497h-3.025l-.127 4.338-19.685-.115-.253 5.067 19.436.628-.585 9.066s-2.343 3.312-6.825-.261c0 0-6.806-5.702-10.311-3.569l-2.047 1.504-.253 6.373s7.618-2.659 11.046 2.568c0 0 1.448 1.898 7.186 2.023zm-19.719-75.613c.852 2.877-.791 1.113-.791 1.113l-11.131-11.657 6.474-4.543zm-1.879-23.417l-3.393 2.092-6.085-9.326c-2.195-3.112-3.155-2.967-3.155-2.967-5.959 2.699-7.168 4.589-7.168 4.589-4.736 4.859 2.56 11.3 2.56 11.3l1.8-2.861c-2.05-.854-1.952-2.341-1.952-2.341-.215-3.74 4.76-4.609 4.76-4.609l6.413 8.045-10.785 8.122 19.552 20.071c5.317 1.389 5.959-1.372 5.959-1.372-1.493-11.792-7.915-25.433-7.915-25.433l2.039-1.388c6.715 7.477 12.913 23.988 12.913 23.988l3.141-1.616c-11.405-26.294-27.448-41.364-27.448-41.364l-1.804 2.267c5.087 5.727 10.568 12.803 10.568 12.803"/><path d="M247.558 487.163c0-3.629-2.854-6.525-6.382-6.525-3.494 0-6.374 2.896-6.374 6.525 0 3.561 2.88 6.496 6.374 6.496 3.528 0 6.382-2.935 6.382-6.496m17.854-9.318c0-3.588-2.852-6.533-6.383-6.533-3.52 0-6.36 2.945-6.36 6.533 0 3.628 2.84 6.522 6.36 6.522 3.531 0 6.383-2.894 6.383-6.522m68.965-.2c0-3.589-2.89-6.525-6.401-6.525s-6.377 2.936-6.377 6.525c0 3.621 2.862 6.516 6.377 6.516s6.401-2.895 6.401-6.516m21.845 8.948c0-3.629-2.844-6.533-6.383-6.533-3.527 0-6.38 2.904-6.38 6.533 0 3.596 2.853 6.531 6.38 6.531 3.539 0 6.383-2.935 6.383-6.531m6.942 183.643l.699.869-6.351 5.945-7.261 4.943 3.044-6.455zm-6.639-7.694l4.338 4.866s-9.049 6.23-14.806 6.021c0 0 8.118-7.544 10.468-10.887m-54.798 32.698l-15.867-3.639 14.865-6.144zm36.398-.626c2.389-1.322 22.02-12.304 36.363-25.726l-2.36-3.37-2.027 1.655-12.926-14.335s-.725 2.601-4.364 6.357c0 0-2.167 8.564-14.941 14.344 0 0-2.357 7.266 1.45 6.521l5.664-1.502h2.003v1.502s-4.726 5.22-5.835 8.013l-4.19 2.601s-1.449.745-2.751-1.506l-6.344-14.71-5.85 2.048 6.924 17.68s-9.82 3.931-19.304 5.972c0 0-7.107.394-1.817-2.257l7.641-1.824s8.042-1.129 5.29-8.581c0 0-.908-5.301-5.005-5.012 0 0-1.29-.116-4.828.923l.257 3.154h1.454l.208-.812s3.64-.119 3.273 4.348c0 0-1.195 4.266-9.3 4.266l-2.357-15.683-7.939 4.348-6.001-3.435 5.276-6.054-4.918-.142s-.913 1.998-6.172 5.543l-.184 2.575 5.727 2.92-.458.928-14.137 4.083v5.887l25.008 4.229v2.352l-27.157-.276-.376 3.663s32.334 3.063 55.819-7.009c0 0 1.111 6.515 10.93 4.466 0 0 15.85-8.011 24.962-15.446l-1.84-2.599-17.895 11.129s-7.528 3.638-8.931-.309z"/></g><g fill="#008346"><path d="M388.571 540.786l.301 1.765-4.325 1.774-2.351-2.217zm-81.175 160.408l-3.049-22.496-3.877 1.278 1.221 23.152zm2.888-13.823l5.928-.435-.071-4.453-6.255.739z"/></g><path d="M377.833 512.393l-8.597-10.145 6.753 12.747z" class="G"/><path d="M362.946 516.09l2.41-2.191-2.86-4.089z" fill="#008346"/><g class="G"><path d="M155.839 587.338c0 73.353 59.672 133.031 133.022 133.031 73.356 0 133.036-59.678 133.036-133.031 0-36.269-13.009-69.683-36.628-94.09-24.31-25.113-58.546-38.943-96.408-38.943-73.35 0-133.022 59.678-133.022 133.033m-3.232 0c0-75.139 61.122-136.267 136.254-136.267 38.745 0 73.809 14.181 98.727 39.93 24.209 25.011 37.541 59.225 37.541 96.337 0 75.134-61.131 136.264-136.268 136.264s-136.254-61.13-136.254-136.264m114.304-7.009l.41 2.718s-1.267 7.787-14.587 8.975c0 0 11.058 2.182 13.32-2.795l2.102-3.26.235 3.102-.803 1.915s-4.517 7.693-11.441 6.515c0 0 3.784 6.8 10.432-.836.005-.018.022-.032.04-.052 6.656-7.703.702-2.55.702-2.55l.835 1.808s-3.386 3.995 2.577 10.814l-.572-9.626s-1.839 4.289 13.018 7.242c0 0-9.21-2.501-12.294-14.361l.114-1.328s3.84 9.358 11.476 3.277c0 0-7.499 0-11.742-6.826v-1.896s5.252 6.649 12.175.86c0 0-9.933.729-11.458-3.394v-1.347l-4.684-.152z"/><path d="M273.969 634.24s6.212 2.951 21.82 0l.863-9.336-24.098-.147zm-41.626-65.863s-2.875 6.491-.166 22.774l8.933.97.32-25.165zm23.777-34.857s-6.473 2.291-15.913 15.631l5.469 7.386 17.688-17.087zm40.156-7.243s-6.192-3.087-21.831-.344l-.986 9.319 24.101.517zm18.297 99.354s6.422-2.474 15.479-16.048l-5.646-7.267-17.209 17.621zm19.519-33.811s2.909-7.192.852-24.329l-8.361-.111-1.04 26.824zm-3.857-41.775s-2.445-6.673-15.549-15.967l-6.855 6.024 17.049 17.755zm-90.231 58.794s2.128 6.848 14.714 16.836l7.15-5.596-16.158-18.734z"/><path d="M325.509 554.11l2.175-1.797 10.156-8.406 10.746 67.491s.285 9.485 9.928 6.842h1.405l-.285-3.537-2.257.277s-2.526.29-2.819-5.62l-6.791-80.006-51.012-17.152-7.924 1.765 40.514 18.96-6.527 5.635 2.275 5.345 1.692 6.782m-69.511 59.472l-29.02 24.079 1.974-8.624 13.307-10.913 8.221-6.833z"/></g><path d="M285.153 621.768l-.289-41.723" fill="#006f41"/><g clip-path="url(#B)"><path d="M285.153 620.247l-.289-40.202" fill="#231f20"/></g><path d="M283.249 580.056l3.232-.023.289 40.202-3.233.023z" class="G"/><path d="M244.104 579.433l81.291-.302" fill="#006f41"/><g clip-path="url(#C)"><path d="M245.317 579.433l78.814-.302" fill="#fff"/></g><path d="M245.308 577.817l78.819-.3.01 3.232-78.816.3z" class="G"/><path d="M247.912 580.045c0 20.778 16.579 37.681 36.953 37.681 9.872 0 19.146-3.913 26.124-11.021 6.983-7.118 10.832-16.586 10.832-26.66 0-10.107-3.849-19.595-10.832-26.717-6.973-7.103-16.248-11.018-26.124-11.018-20.374 0-36.953 16.927-36.953 37.735m-8.082 0c0-25.262 20.2-45.816 45.035-45.816 12.061 0 23.388 4.772 31.89 13.437 8.477 8.646 13.15 20.143 13.15 32.379 0 12.205-4.673 23.684-13.15 32.322-8.51 8.669-19.834 13.441-31.89 13.441-24.835 0-45.035-20.53-45.035-45.763" fill="#0b7146"/><g class="G"><path d="M292.316 560.634l-.175-1.43-3.498 2.099 8.917 6.875 1.48-1.874 2.65.11.585 2.799 5.946.452.264 1.624-.52 1.052h-5.972v1.298l-1.389-1.147-1.564.109v3.269h-1.162l-.249-3.529v-1.186l-13.8-6.843-1.171 1.947h-2.831l-.078 3.164 2.254.242.086 2.292-2.532.068s-1.952.576-1.952-1.782v-4.276h-2.163v3.246l-.683 1.322-2.305.301-.123 1.505-3.097.151-.131-1.046-2.053.135-.796-1.783-.772.595h-3.731l-.135-1.322-1.438-1.152-.1-3.472.611-1.748 2.18-1.639.284-4.289h-3.478v-.739l5.024-.45 1.818-1.02 2.843.561.131 1.648 1.425-.136v-2.073s1.804-1.942 4.901-.293v3.243h1.677l-.052-1.395s.298-5.278 3.002-5.989c0 0 5.303-1.648 6.076 1.915l.27 2.049 1.368-.132 1.506-1.758-1.253-3.805 3.805 2.442 2.307-.292 1.406 7.284-3.713 1.74 1.011.132m3.121-1.946l2.617-.62 1.39 1.472-1.739.845.219 1.18s4.393-1.489 6.648-1.064l2.068 1.366 2.335.499-1.846-3.654s-2.557-2.041-5.41-.488l-3.03-1.369-1.269-.69-.585-.379-1.957-.678zm-3.121 22.18l-.098 3.629-1.013.777s-1.874 10.436-4.958 5.261l-.118 2.166s1.254 6.138 4.115.98c0 0 .734 3.227-1.621 4.306-2.376 1.084 2.775 1.705 3.058-1.632.302-3.344-.703 10.697-4.298 13.037 0 0 3.695-1.595 4.6-8.177 0 0 0 9.6-1.207 8.177 0 0 2.348-.517 3.582-6.772l.52-2.694.726 3.448s2.991 8.872 4.609 4.633c0 0-2.542-1.623-1.822-3.891.698-2.265 0-.291 0-.291s2.254 3.418 3.393 2.014c0 0-2.04-2.465-1.449-2.894.628-.426 2.585 3.982 5.564 1.413l1.23-2.173s-4.54 2.684-4.928-1.623c0 0 4.522 2.058 7.395-2.468l.127-3.042s3.201-.385 3.271-4.183v-.334c-.091-4.082-.28-.963-.28-.963s-1.371 2.477-4.144 2.477c-2.761 0-.196.416-.196.416l.523-3.301h.699s.638-1.533-.065-3.037c0 0 .8-2.275.604-2.8-.221-.539-1.238-.653-2.178 2.282 0 0-1.234.201-.902 2.256 0 0-1.448-.45-2.6 2.018-1.128 2.485-.302-.109-.302-.109l-4.595 2.652c6.302-7.152 5.992-4.292 5.976-4.751.795-.694-.463 17.411 1.991-4.718 0 0-5.741 14.108-3.07 6.926 0 0 .826-2.208-.603-2.208 0 0-3.517 2.432-5.386.075 0 0-1.206-2.066-1.206-3.898l-.12-3.337z"/></g><use xlink:href="#D" class="B"/><use xlink:href="#D" class="C D E F"/><use xlink:href="#E" class="B"/><use xlink:href="#E" class="C D E F"/><use xlink:href="#F" class="B"/><use xlink:href="#F" class="C D E F"/><path d="M257.263 423.61c-.655-.764-1.383-1.264-2.185-1.499s-1.696-.247-2.684-.031c-1.333.29-2.425.843-3.277 1.657s-1.494 1.778-1.926 2.89-.676 2.306-.729 3.581.051 2.518.315 3.73c.213.977.586 1.983 1.119 3.018a15.26 15.26 0 0 0 1.971 2.921c.78.912 1.662 1.717 2.646 2.414a9.96 9.96 0 0 0 3.127 1.502l-10.377 2.26.473 2.168 15.739-3.428-.452-2.077c-1.634-.081-3.122-.397-4.463-.947a12.52 12.52 0 0 1-3.555-2.184c-1.029-.906-1.888-1.966-2.577-3.181s-1.19-2.539-1.502-3.974c-.104-.479-.151-.999-.14-1.561s.071-1.129.179-1.702.269-1.127.484-1.664.469-1.025.763-1.462a5.16 5.16 0 0 1 .996-1.112 2.82 2.82 0 0 1 1.205-.598c.355-.078.657-.122.904-.134s.489.017.725.082.48.176.734.329l.918.607c.36-.43.882-.965 1.569-1.605" class="B"/><path d="M257.263 423.61c-.655-.764-1.383-1.264-2.185-1.499s-1.696-.247-2.684-.031c-1.333.29-2.425.843-3.277 1.657s-1.494 1.778-1.926 2.89-.676 2.306-.729 3.581.051 2.518.315 3.73c.213.977.586 1.983 1.119 3.018a15.26 15.26 0 0 0 1.971 2.921c.78.912 1.662 1.717 2.646 2.414a9.96 9.96 0 0 0 3.127 1.502l-10.377 2.26.473 2.168 15.739-3.428-.452-2.077c-1.634-.081-3.122-.397-4.463-.947a12.52 12.52 0 0 1-3.555-2.184c-1.029-.906-1.888-1.966-2.577-3.181s-1.19-2.539-1.502-3.974c-.104-.479-.151-.999-.14-1.561s.071-1.129.179-1.702.269-1.127.484-1.664.469-1.025.763-1.462a5.16 5.16 0 0 1 .996-1.112 2.82 2.82 0 0 1 1.205-.598c.355-.078.657-.122.904-.134s.489.017.725.082.48.176.734.329l.918.607c.36-.43.882-.965 1.569-1.605z" class="C D E F"/><use xlink:href="#G" class="B"/><use xlink:href="#G" class="C D E F"/><path d="M295.071 425.018c.772.026 1.413-.176 1.922-.607s.777-1.005.801-1.724-.202-1.312-.681-1.782-1.104-.718-1.876-.744c-.784-.026-1.425.178-1.923.615s-.76 1.013-.784 1.732.197 1.309.665 1.774 1.092.709 1.876.736m6.02 11.54c-.328-.084-.749-.227-1.265-.426l-1.656-.698-1.821-.875-1.776-.944-1.504-.895c-.446-.286-.778-.537-.998-.753.41-.028.902-.134 1.478-.318s1.179-.426 1.815-.727l1.911-1.022 1.797-1.189c.561-.413 1.052-.824 1.476-1.232s.719-.78.89-1.118zm3.027-17.751l-2.419-.083-.131 3.842c-.151.432-.443.917-.877 1.455s-.959 1.088-1.574 1.651-1.295 1.11-2.035 1.642a21.32 21.32 0 0 1-2.257 1.424c-.765.417-1.513.746-2.243.987s-1.385.351-1.964.332l-.349-.028a1.26 1.26 0 0 1-.296-.073l-1.647 2.289c3.857 2.925 8.087 5.091 12.69 6.499l-.063 1.858-15.197-.518-.076 2.218 21.04.717.077-2.217-3.425-.117z" class="B"/><path d="M295.071 425.018c.772.026 1.413-.176 1.922-.607s.777-1.005.801-1.724-.202-1.312-.681-1.782-1.104-.718-1.876-.744c-.784-.026-1.425.178-1.923.615s-.76 1.013-.784 1.732.197 1.309.665 1.774 1.092.709 1.876.736zm6.02 11.54c-.328-.084-.749-.227-1.265-.426l-1.656-.698-1.821-.875-1.776-.944-1.504-.895c-.446-.286-.778-.537-.998-.753.41-.028.902-.134 1.478-.318s1.179-.426 1.815-.727l1.911-1.022 1.797-1.189c.561-.413 1.052-.824 1.476-1.232s.719-.78.89-1.118zm3.027-17.751l-2.419-.083-.131 3.842c-.151.432-.443.917-.877 1.455s-.959 1.088-1.574 1.651-1.295 1.11-2.035 1.642a21.32 21.32 0 0 1-2.257 1.424c-.765.417-1.513.746-2.243.987s-1.385.351-1.964.332l-.349-.028a1.26 1.26 0 0 1-.296-.073l-1.647 2.289c3.857 2.925 8.087 5.091 12.69 6.499l-.063 1.858-15.197-.518-.076 2.218 21.04.717.077-2.217-3.425-.117z" class="C D E F"/><use xlink:href="#H" class="B"/><use xlink:href="#H" class="C D E F"/><path d="M335.696 419.544a2.72 2.72 0 0 1 .745.343c.234.154.442.337.622.551a3 3 0 0 1 .447.704c.117.256.184.515.203.781a3.39 3.39 0 0 1-1.282.268c-.438.005-.849-.047-1.231-.156a4.5 4.5 0 0 1-.68-.258c-.235-.11-.436-.244-.604-.4s-.291-.337-.368-.543-.081-.435-.009-.685c.108-.38.356-.617.742-.707s.858-.056 1.415.102m2.962 8.27l1.319-1.956c.331-.54.541-.964.629-1.275.018-.06.04-.2.067-.42l.076-.888 1.732-.636 1.342-.543 1.112-.545 1.074-.628 1.22-.797 1.548-1.078-1.439-1.791c-2.4 1.828-4.806 3.098-7.218 3.808-.589-1.208-1.276-2.087-2.057-2.642s-1.638-.961-2.566-1.227a3.49 3.49 0 0 0-1.422-.111 3.54 3.54 0 0 0-1.281.422 3.38 3.38 0 0 0-1.001.869c-.28.359-.485.77-.617 1.23a2.58 2.58 0 0 0-.001 1.405 3.86 3.86 0 0 0 .674 1.337c.319.416.719.784 1.201 1.106s1.011.564 1.59.729c.296.084.736.117 1.32.1s1.325-.089 2.222-.212l-.066.42c-.106.37-.463.94-1.072 1.709z" class="B"/><path d="M335.696 419.544a2.72 2.72 0 0 1 .745.343c.234.154.442.337.622.551a3 3 0 0 1 .447.704c.117.256.184.515.203.781a3.39 3.39 0 0 1-1.282.268c-.438.005-.849-.047-1.231-.156a4.5 4.5 0 0 1-.68-.258c-.235-.11-.436-.244-.604-.4s-.291-.337-.368-.543-.081-.435-.009-.685c.108-.38.356-.617.742-.707s.858-.056 1.415.102zm2.962 8.27l1.319-1.956c.331-.54.541-.964.629-1.275.018-.06.04-.2.067-.42l.076-.888 1.732-.636 1.342-.543 1.112-.545 1.074-.628 1.22-.797 1.548-1.078-1.439-1.791c-2.4 1.828-4.806 3.098-7.218 3.808-.589-1.208-1.276-2.087-2.057-2.642s-1.638-.961-2.566-1.227a3.49 3.49 0 0 0-1.422-.111 3.54 3.54 0 0 0-1.281.422 3.38 3.38 0 0 0-1.001.869c-.28.359-.485.77-.617 1.23a2.58 2.58 0 0 0-.001 1.405 3.86 3.86 0 0 0 .674 1.337c.319.416.719.784 1.201 1.106s1.011.564 1.59.729c.296.084.736.117 1.32.1s1.325-.089 2.222-.212l-.066.42c-.106.37-.463.94-1.072 1.709z" class="C D E F"/><path d="M352.07 433.553c.729.257 1.401.257 2.017 0s1.043-.725 1.282-1.403.202-1.312-.113-1.904-.837-1.017-1.566-1.275c-.739-.261-1.412-.258-2.018.008s-1.03.738-1.269 1.416-.207 1.307.1 1.891.828 1.006 1.567 1.267m-7.535 15.384l1.62-.364 1.563-.434c.51-.162 1.011-.36 1.503-.595a7.66 7.66 0 0 0 1.413-.876l-2.666-4.042-1.944-3.322 3.432.111a14.9 14.9 0 0 0 2.691-.275c.85-.169 1.714-.424 2.594-.765l3.086-1.312-5.208 14.731zm-8.728-.732l21.633 7.647.739-2.092-3.278-1.159 7.296-20.639-2.282-.806-1.099 3.108c-.774.588-1.703 1.094-2.787 1.517a19.26 19.26 0 0 1-3.409.974c-1.189.226-2.391.351-3.604.375s-2.335-.063-3.361-.26l-2.821 1.588 1.944 3.322 2.768 4.011c-.068.054-.273.139-.616.256l-1.256.384-1.609.409-1.647.362-1.349.236c-.379.048-.627.052-.745.01l-3.776-1.335z" class="B"/><path d="M352.07 433.553c.729.257 1.401.257 2.017 0s1.043-.725 1.282-1.403.202-1.312-.113-1.904-.837-1.017-1.566-1.275c-.739-.261-1.412-.258-2.018.008s-1.03.738-1.269 1.416-.207 1.307.1 1.891.828 1.006 1.567 1.267zm-7.535 15.384l1.62-.364 1.563-.434c.51-.162 1.011-.36 1.503-.595a7.66 7.66 0 0 0 1.413-.876l-2.666-4.042-1.944-3.322 3.432.111a14.9 14.9 0 0 0 2.691-.275c.85-.169 1.714-.424 2.594-.765l3.086-1.312-5.208 14.731zm-8.728-.732l21.633 7.647.739-2.092-3.278-1.159 7.296-20.639-2.282-.806-1.099 3.108c-.774.588-1.703 1.094-2.787 1.517a19.26 19.26 0 0 1-3.409.974c-1.189.226-2.391.351-3.604.375s-2.335-.063-3.361-.26l-2.821 1.588 1.944 3.322 2.768 4.011c-.068.054-.273.139-.616.256l-1.256.384-1.609.409-1.647.362-1.349.236c-.379.048-.627.052-.745.01l-3.776-1.335z" class="C D E F"/><use xlink:href="#I" class="B"/><use xlink:href="#I" class="C D E F"/><path d="M380.113 447.806c.672.382 1.334.5 1.985.354s1.154-.53 1.509-1.155.429-1.257.223-1.895-.645-1.148-1.317-1.53c-.682-.387-1.345-.503-1.989-.347s-1.142.546-1.498 1.171-.433 1.251-.233 1.88.638 1.135 1.32 1.522m-.02 13.016c-.251-.226-.558-.548-.922-.964l-1.144-1.386-1.207-1.62-1.136-1.66-.918-1.491c-.26-.461-.439-.837-.534-1.131.377.166.861.301 1.456.405s1.243.17 1.946.198l2.167-.019 2.144-.22a14.79 14.79 0 0 0 1.878-.407c.564-.164 1-.357 1.309-.577zm10.916-14.321l-2.105-1.195-1.897 3.342c-.335.313-.819.607-1.453.882s-1.353.519-2.16.732a22.32 22.32 0 0 1-2.564.511c-.903.129-1.789.2-2.66.215a13.7 13.7 0 0 1-2.445-.166c-.758-.126-1.389-.331-1.894-.618l-.296-.186c-.089-.062-.165-.129-.229-.201l-2.52 1.263a40.41 40.41 0 0 0 8.227 11.644l-.919 1.617-13.221-7.509-1.096 1.93 18.307 10.396 1.095-1.93-2.979-1.692z" class="B"/><path d="M380.113 447.806c.672.382 1.334.5 1.985.354s1.154-.53 1.509-1.155.429-1.257.223-1.895-.645-1.148-1.317-1.53c-.682-.387-1.345-.503-1.989-.347s-1.142.546-1.498 1.171-.433 1.251-.233 1.88.638 1.135 1.32 1.522zm-.02 13.016c-.251-.226-.558-.548-.922-.964l-1.144-1.386-1.207-1.62-1.136-1.66-.918-1.491c-.26-.461-.439-.837-.534-1.131.377.166.861.301 1.456.405s1.243.17 1.946.198l2.167-.019 2.144-.22a14.79 14.79 0 0 0 1.878-.407c.564-.164 1-.357 1.309-.577zm10.916-14.321l-2.105-1.195-1.897 3.342c-.335.313-.819.607-1.453.882s-1.353.519-2.16.732a22.32 22.32 0 0 1-2.564.511c-.903.129-1.789.2-2.66.215a13.7 13.7 0 0 1-2.445-.166c-.758-.126-1.389-.331-1.894-.618l-.296-.186c-.089-.062-.165-.129-.229-.201l-2.52 1.263a40.41 40.41 0 0 0 8.227 11.644l-.919 1.617-13.221-7.509-1.096 1.93 18.307 10.396 1.095-1.93-2.979-1.692z" class="C D E F"/></g></svg>