<?xml version="1.0" encoding="UTF-8" standalone="no"?>
<svg
   xmlns:dc="http://purl.org/dc/elements/1.1/"
   xmlns:cc="http://creativecommons.org/ns#"
   xmlns:rdf="http://www.w3.org/1999/02/22-rdf-syntax-ns#"
   xmlns:svg="http://www.w3.org/2000/svg"
   xmlns="http://www.w3.org/2000/svg"
   viewBox="0 0 793.70667 1122.52"
   height="1122.52"
   width="793.70667"
   xml:space="preserve"
   id="svg2"
   version="1.1"><metadata
     id="metadata8"><rdf:RDF><cc:Work
         rdf:about=""><dc:format>image/svg+xml</dc:format><dc:type
           rdf:resource="http://purl.org/dc/dcmitype/StillImage" /></cc:Work></rdf:RDF></metadata><defs
     id="defs6"><clipPath
       id="clipPath18"
       clipPathUnits="userSpaceOnUse"><path
         id="path16"
         d="M 0,841.89 H 595.28 V 0 H 0 Z" /></clipPath><clipPath
       id="clipPath250"
       clipPathUnits="userSpaceOnUse"><path
         id="path248"
         d="m 284.864,620.247 h 0.289 v -40.202 h -0.289 z" /></clipPath><clipPath
       id="clipPath274"
       clipPathUnits="userSpaceOnUse"><path
         id="path272"
         d="m 245.317,579.433 h 78.815 v -0.302 h -78.815 z" /></clipPath></defs><g
     transform="matrix(1.3333333,0,0,-1.3333333,0,1122.52)"
     id="g10"><g
       id="g12"><g
         clip-path="url(#clipPath18)"
         id="g14"><g
           transform="translate(179.272,536.4964)"
           id="g20"><path
             id="path22"
             style="fill:#007547;fill-opacity:1;fill-rule:nonzero;stroke:none"
             d="M 0,0 C 3.729,-3.814 6.172,0 6.172,0 6.539,5.353 1.537,8.556 1.537,8.556 -2.858,9.199 -2.652,5.906 -2.652,5.906 -2.652,3.271 0,0 0,0 m -7.044,8.472 c 0,0 -0.668,3.882 7.877,5.093 0.271,0.016 0.739,0.083 1.105,-0.016 0,0 0.101,0 0.769,-0.486 1.18,-0.893 3.198,-2.951 5.001,-7.71 0,0 4.758,-8.33 0.474,-10.553 0,0 -5.641,-2.889 -8.257,-0.193 0,0 -6.042,5.3 -6.969,13.865" /></g><g
           transform="translate(392.9355,550.639)"
           id="g24"><path
             id="path26"
             style="fill:#007547;fill-opacity:1;fill-rule:nonzero;stroke:none"
             d="m 0,0 c 0.745,-4.3 6.574,-3.506 6.574,-3.506 5.84,-0.683 5.84,3.607 5.84,3.607 l 2.425,11.073 c 0.725,4.08 -2.795,4.4 -2.795,4.4 C 6.072,17.464 3.546,15.506 3.546,15.506 0.629,8.883 0,0 0,0 m 5.138,9.794 c 0,0 3.624,1.78 5.687,-1.288 0,0 1.822,-5.922 -2.56,-7.703 0,0 -3.767,-1.005 -4.479,3.061 0,0 -0.507,3.764 1.352,5.93" /></g><g
           transform="translate(198.3223,538.5619)"
           id="g28"><path
             id="path30"
             style="fill:#007547;fill-opacity:1;fill-rule:nonzero;stroke:none"
             d="m 0,0 -3.732,6.732 c 0,0 -1.974,3.671 3.382,5.446 l -2.762,7.042 c 0,0 -5.577,-1.68 -6.438,-5.679 0,0 -0.988,-2.318 1.668,-6.356 l 4.963,-9.018 z" /></g><g
           transform="translate(387.3213,568.9798)"
           id="g32"><path
             id="path34"
             style="fill:#007547;fill-opacity:1;fill-rule:nonzero;stroke:none"
             d="m 0,0 -1.074,-7.819 c -0.862,-5.578 -12.178,1.446 -5.772,-1.706 l -1.972,-7.385 c 0,0 5.215,-2.676 8.183,-0.302 0,0 2.152,1.071 2.431,6.09 l 1.48,10.41 z" /></g><g
           transform="translate(207.1641,584.2767)"
           id="g36"><path
             id="path38"
             style="fill:#007547;fill-opacity:1;fill-rule:nonzero;stroke:none"
             d="m 0,0 c 0,46.925 37.358,85.104 83.274,85.104 45.909,0 83.263,-38.179 83.263,-85.104 0,-46.964 -37.354,-85.169 -83.263,-85.169 C 37.358,-85.169 0,-46.964 0,0 m -3.233,0 c 0,-48.745 38.804,-88.402 86.507,-88.402 47.691,0 86.497,39.657 86.497,88.402 0,48.706 -38.806,88.336 -86.497,88.336 C 35.571,88.336 -3.233,48.706 -3.233,0" /></g><g
           transform="translate(238.083,642.6781)"
           id="g40"><path
             id="path42"
             style="fill:#007547;fill-opacity:1;fill-rule:nonzero;stroke:none"
             d="M 0,0 48.289,20.389 100.243,0 Z" /></g><g
           transform="translate(287.0571,580.3119)"
           id="g44"><path
             id="path46"
             style="fill:#231f20;fill-opacity:1;fill-rule:nonzero;stroke:none"
             d="M 0,0 V 0 -0.041 Z" /></g><g
           transform="translate(287.0571,580.2709)"
           id="g48"><path
             id="path50"
             style="fill:#231f20;fill-opacity:1;fill-rule:nonzero;stroke:none"
             d="M 0,0 Z" /></g><g
           transform="translate(287.0571,580.2709)"
           id="g52"><path
             id="path54"
             style="fill:#231f20;fill-opacity:1;fill-rule:nonzero;stroke:none"
             d="M 0,0 V 0.041 Z" /></g><g
           transform="translate(287.0571,580.3119)"
           id="g56"><path
             id="path58"
             style="fill:#231f20;fill-opacity:1;fill-rule:nonzero;stroke:none"
             d="M 0,0 Z" /></g><g
           transform="translate(287.0571,580.2709)"
           id="g60"><path
             id="path62"
             style="fill:#231f20;fill-opacity:1;fill-rule:nonzero;stroke:none"
             d="M 0,0 V 0.041 Z" /></g><g
           transform="translate(287.0571,580.2709)"
           id="g64"><path
             id="path66"
             style="fill:#231f20;fill-opacity:1;fill-rule:nonzero;stroke:none"
             d="M 0,0 Z" /></g><g
           transform="translate(287.0571,580.2709)"
           id="g68"><path
             id="path70"
             style="fill:#231f20;fill-opacity:1;fill-rule:nonzero;stroke:none"
             d="M 0,0 Z" /></g><g
           transform="translate(287.0571,580.2709)"
           id="g72"><path
             id="path74"
             style="fill:#231f20;fill-opacity:1;fill-rule:nonzero;stroke:none"
             d="M 0,0 V 0 0.041 Z" /></g><g
           transform="translate(287.0698,580.3119)"
           id="g76"><path
             id="path78"
             style="fill:#231f20;fill-opacity:1;fill-rule:nonzero;stroke:none"
             d="M 0,0 H -0.013 Z" /></g><g
           transform="translate(287.0571,580.3119)"
           id="g80"><path
             id="path82"
             style="fill:#231f20;fill-opacity:1;fill-rule:nonzero;stroke:none"
             d="M 0,0 Z" /></g><g
           transform="translate(287.0571,580.3119)"
           id="g84"><path
             id="path86"
             style="fill:#231f20;fill-opacity:1;fill-rule:nonzero;stroke:none"
             d="M 0,0 Z" /></g><g
           transform="translate(287.0571,580.3119)"
           id="g88"><path
             id="path90"
             style="fill:#231f20;fill-opacity:1;fill-rule:nonzero;stroke:none"
             d="M 0,0 Z" /></g><g
           transform="translate(287.0571,580.3119)"
           id="g92"><path
             id="path94"
             style="fill:#231f20;fill-opacity:1;fill-rule:nonzero;stroke:none"
             d="M 0,0 0.013,-0.041 0,0 v -0.041 z" /></g><g
           transform="translate(287.0571,580.2709)"
           id="g96"><path
             id="path98"
             style="fill:#231f20;fill-opacity:1;fill-rule:nonzero;stroke:none"
             d="M 0,0 Z" /></g><g
           transform="translate(287.0571,580.2709)"
           id="g100"><path
             id="path102"
             style="fill:#231f20;fill-opacity:1;fill-rule:nonzero;stroke:none"
             d="M 0,0 Z" /></g><g
           transform="translate(287.0571,580.3119)"
           id="g104"><path
             id="path106"
             style="fill:#231f20;fill-opacity:1;fill-rule:nonzero;stroke:none"
             d="M 0,0 V 0 -0.041 Z" /></g><g
           transform="translate(287.0571,580.2709)"
           id="g108"><path
             id="path110"
             style="fill:#231f20;fill-opacity:1;fill-rule:nonzero;stroke:none"
             d="M 0,0 H 0.013 L 0,0.041 Z" /></g><g
           transform="translate(287.0571,580.2709)"
           id="g112"><path
             id="path114"
             style="fill:#231f20;fill-opacity:1;fill-rule:nonzero;stroke:none"
             d="M 0,0 V 0.041 Z" /></g><g
           transform="translate(287.0571,580.3119)"
           id="g116"><path
             id="path118"
             style="fill:#231f20;fill-opacity:1;fill-rule:nonzero;stroke:none"
             d="M 0,0 Z" /></g><g
           transform="translate(287.0571,580.2709)"
           id="g120"><path
             id="path122"
             style="fill:#231f20;fill-opacity:1;fill-rule:nonzero;stroke:none"
             d="M 0,0 V 0.041 Z" /></g><g
           transform="translate(287.0571,580.2709)"
           id="g124"><path
             id="path126"
             style="fill:#231f20;fill-opacity:1;fill-rule:nonzero;stroke:none"
             d="M 0,0 V 0.041 Z" /></g><g
           transform="translate(287.0571,580.2709)"
           id="g128"><path
             id="path130"
             style="fill:#231f20;fill-opacity:1;fill-rule:nonzero;stroke:none"
             d="M 0,0 Z" /></g><g
           transform="translate(246.5142,579.5843)"
           id="g132"><path
             id="path134"
             style="fill:#231f20;fill-opacity:1;fill-rule:nonzero;stroke:none"
             d="M 0,0 H 80.704" /></g><g
           transform="translate(220.2021,504.1302)"
           id="g136"><path
             id="path138"
             style="fill:#007547;fill-opacity:1;fill-rule:nonzero;stroke:none"
             d="m 0,0 -7.175,14.879 -8.476,-7 z m 0.241,-14.928 -1.878,-2.442 c 0,0 -24.363,18.984 -32.528,36.163 l 19.396,12.018 2.91,-4.791 L -28.118,15.766 -23.72,8.898 -6.434,21.528 7.45,-4.02 3.16,-8.932 -18.687,6.392 -20.565,5.025 c 4.298,-6.798 4.792,-6.731 20.806,-19.953" /></g><g
           transform="translate(176.4448,557.6224)"
           id="g140"><path
             id="path142"
             style="fill:#007547;fill-opacity:1;fill-rule:nonzero;stroke:none"
             d="m 0,0 -4.566,-1.372 c 0,0 -8.924,25.326 -0.187,57.531 0,0 7.67,29.588 28.085,53.776 0,0 5.081,5.171 13.835,5.688 0,0 3.262,13.138 20.885,11.532 l -3.29,6.456 c 0,0 2.207,3.23 9.366,5.092 l 2.276,-4.857 -3.992,-1.881 7.766,-18.241 -4.862,-2.694 c 0,0 -4.373,14.629 -15.883,11.151 0,0 -8.754,-3.859 -5.828,-7.972 0,0 2.312,-3.07 5.586,1.02 l 2.528,3.093 4.014,-6.078 c 0,0 -4.224,-5.721 -11.275,-5.721 0,0 -0.752,-8.054 -7.291,-10.512 0,0 -4.736,1.998 -5.837,4.942 0,0 5.107,2.458 4.382,7.31 0,0 -2.325,4.457 -7.679,0.256 0,0 -9.935,-11.295 -18.1,-26.3 l 8.864,-6.196 1.616,15.489 4.959,4.598 L 37.77,86.679 33.873,82.437 23.922,87.43 23.332,72.417 19.435,69.298 8.029,77.493 4.032,69.023 16.774,63.46 c 0,0 3.128,-1.839 4.837,0.995 l 2.311,4.97 3.293,-1.333 c 0,0 -3.18,-11.933 -10.222,-10.444 0,0 -9.082,2.342 -15.045,5.948 L -0.231,56.512 19.186,51.2 17.749,45.488 -1.447,50.321 c 0,0 -1.607,-3.713 -1.445,-8.211 l 19.746,-2.845 -0.831,-6.054 -8.851,0.242 c 0,0 -4.376,-2.768 -1.603,-7.711 0,0 0.622,-1.508 2.46,-1.747 l 3.393,0.239 -0.134,-5.468 c 0,0 -7.256,0.144 -5.955,-6.212 0,0 0,-4.942 4.508,-4.082 0,0 3.281,0.76 3.281,2.995 l -0.134,3.102 2.804,0.501 1.586,-4.589 c 0,0 1.926,-5.964 -5.836,-7.972 0,0 -6.694,-2.459 -8.489,1.638 0,0 -4.5,8.556 0.109,15.665 l 0.101,0.838 c 0,0 -5.063,4.105 -2.787,10.662 l 2.32,4.381 H -3.273 C -3.273,35.693 -4.391,12.387 0,0" /></g><g
           transform="translate(394.5068,613.3968)"
           id="g144"><path
             id="path146"
             style="fill:#007547;fill-opacity:1;fill-rule:nonzero;stroke:none"
             d="m 0,0 -9.968,12.11 0.611,-14.778 z m 7.278,-3.964 -20.042,-5.837 -4.11,31.186 5.185,4.058 L 2.787,3.331 5.212,3.429 5.073,5.863 c 0,0 -4.434,14.52 -7.983,18.833 l 3.414,2.167 c 0,0 9.567,-19.352 11.889,-38.965 0,0 2.435,-18.55 2.184,-27.497 h -3.025 l -0.127,4.338 -19.685,-0.115 -0.253,5.067 19.436,0.628 -0.585,9.066 c 0,0 -2.343,3.312 -6.825,-0.261 0,0 -6.806,-5.702 -10.311,-3.569 l -2.047,1.504 -0.253,6.373 c 0,0 7.618,-2.659 11.046,2.568 0,0 1.448,1.898 7.186,2.023 z" /></g><g
           transform="translate(382.0664,533.8197)"
           id="g148"><path
             id="path150"
             style="fill:#007547;fill-opacity:1;fill-rule:nonzero;stroke:none"
             d="m 0,0 c 0.852,2.877 -0.791,1.113 -0.791,1.113 l -11.131,-11.657 6.474,-4.543 z m -1.879,-23.417 -3.393,2.092 -6.085,-9.326 c -2.195,-3.112 -3.155,-2.967 -3.155,-2.967 -5.959,2.699 -7.168,4.589 -7.168,4.589 -4.736,4.859 2.56,11.3 2.56,11.3 l 1.8,-2.861 c -2.05,-0.854 -1.952,-2.341 -1.952,-2.341 -0.215,-3.74 4.76,-4.609 4.76,-4.609 l 6.413,8.045 -10.785,8.122 L 0.668,8.698 C 5.985,10.087 6.627,7.326 6.627,7.326 5.134,-4.466 -1.288,-18.107 -1.288,-18.107 l 2.039,-1.388 C 7.466,-12.018 13.664,4.493 13.664,4.493 L 16.805,2.877 C 5.4,-23.417 -10.643,-38.487 -10.643,-38.487 l -1.804,2.267 c 5.087,5.727 10.568,12.803 10.568,12.803" /></g><g
           transform="translate(247.5581,487.1625)"
           id="g152"><path
             id="path154"
             style="fill:#007547;fill-opacity:1;fill-rule:nonzero;stroke:none"
             d="m 0,0 c 0,-3.629 -2.854,-6.525 -6.382,-6.525 -3.494,0 -6.374,2.896 -6.374,6.525 0,3.561 2.88,6.496 6.374,6.496 C -2.854,6.496 0,3.561 0,0" /></g><g
           transform="translate(265.4116,477.8451)"
           id="g156"><path
             id="path158"
             style="fill:#007547;fill-opacity:1;fill-rule:nonzero;stroke:none"
             d="m 0,0 c 0,-3.588 -2.852,-6.533 -6.383,-6.533 -3.52,0 -6.36,2.945 -6.36,6.533 0,3.628 2.84,6.522 6.36,6.522 C -2.852,6.522 0,3.628 0,0" /></g><g
           transform="translate(334.377,477.6449)"
           id="g160"><path
             id="path162"
             style="fill:#007547;fill-opacity:1;fill-rule:nonzero;stroke:none"
             d="m 0,0 c 0,-3.589 -2.89,-6.525 -6.401,-6.525 -3.515,0 -6.377,2.936 -6.377,6.525 0,3.621 2.862,6.516 6.377,6.516 C -2.89,6.516 0,3.621 0,0" /></g><g
           transform="translate(356.2217,486.5931)"
           id="g164"><path
             id="path166"
             style="fill:#007547;fill-opacity:1;fill-rule:nonzero;stroke:none"
             d="m 0,0 c 0,-3.629 -2.844,-6.533 -6.383,-6.533 -3.527,0 -6.38,2.904 -6.38,6.533 0,3.596 2.853,6.531 6.38,6.531 C -2.844,6.531 0,3.596 0,0" /></g><g
           transform="translate(363.1641,670.2357)"
           id="g168"><path
             id="path170"
             style="fill:#007547;fill-opacity:1;fill-rule:nonzero;stroke:none"
             d="m 0,0 0.699,0.869 -6.351,5.945 -7.261,4.943 3.044,-6.455 z m -6.639,-7.694 4.338,4.866 c 0,0 -9.049,6.23 -14.806,6.021 0,0 8.118,-7.544 10.468,-10.887 m -54.798,32.698 -15.867,-3.639 14.865,-6.144 z m 36.398,-0.626 c 2.389,-1.322 22.02,-12.304 36.363,-25.726 l -2.36,-3.37 -2.027,1.655 -12.926,-14.335 c 0,0 -0.725,2.601 -4.364,6.357 0,0 -2.167,8.564 -14.941,14.344 0,0 -2.357,7.266 1.45,6.521 l 5.664,-1.502 h 2.003 v 1.502 c 0,0 -4.726,5.22 -5.835,8.013 l -4.19,2.601 c 0,0 -1.449,0.745 -2.751,-1.506 l -6.344,-14.71 -5.85,2.048 6.924,17.68 c 0,0 -9.82,3.931 -19.304,5.972 0,0 -7.107,0.394 -1.817,-2.257 l 7.641,-1.824 c 0,0 8.042,-1.129 5.29,-8.581 0,0 -0.908,-5.301 -5.005,-5.012 0,0 -1.29,-0.116 -4.828,0.923 l 0.257,3.154 h 1.454 l 0.208,-0.812 c 0,0 3.64,-0.119 3.273,4.348 0,0 -1.195,4.266 -9.3,4.266 l -2.357,-15.683 -7.939,4.348 -6.001,-3.435 5.276,-6.054 -4.918,-0.142 c 0,0 -0.913,1.998 -6.172,5.543 l -0.184,2.575 5.727,2.92 -0.458,0.928 -14.137,4.083 v 5.887 l 25.008,4.229 v 2.352 l -27.157,-0.276 -0.376,3.663 c 0,0 32.334,3.063 55.819,-7.009 0,0 1.111,6.515 10.93,4.466 0,0 15.85,-8.011 24.962,-15.446 l -1.84,-2.599 -17.895,11.129 c 0,0 -7.528,3.638 -8.931,-0.309 z" /></g><g
           transform="translate(388.5713,540.7855)"
           id="g172"><path
             id="path174"
             style="fill:#008346;fill-opacity:1;fill-rule:nonzero;stroke:none"
             d="M 0,0 0.301,1.765 -4.024,3.539 -6.375,1.322 Z" /></g><g
           transform="translate(307.3955,701.1937)"
           id="g176"><path
             id="path178"
             style="fill:#008346;fill-opacity:1;fill-rule:nonzero;stroke:none"
             d="m 0,0 -3.049,-22.496 -3.877,1.278 1.221,23.152 z" /></g><g
           transform="translate(310.2842,687.3714)"
           id="g180"><path
             id="path182"
             style="fill:#008346;fill-opacity:1;fill-rule:nonzero;stroke:none"
             d="M 0,0 5.928,-0.435 5.857,-4.888 -0.398,-4.149 Z" /></g><g
           transform="translate(377.833,512.3929)"
           id="g184"><path
             id="path186"
             style="fill:#007547;fill-opacity:1;fill-rule:nonzero;stroke:none"
             d="M 0,0 -8.597,-10.145 -1.844,2.602 Z" /></g><g
           transform="translate(362.9463,516.0902)"
           id="g188"><path
             id="path190"
             style="fill:#008346;fill-opacity:1;fill-rule:nonzero;stroke:none"
             d="M 0,0 2.41,-2.191 -0.45,-6.28 Z" /></g><g
           transform="translate(155.8389,587.3382)"
           id="g192"><path
             id="path194"
             style="fill:#007547;fill-opacity:1;fill-rule:nonzero;stroke:none"
             d="m 0,0 c 0,73.353 59.672,133.031 133.022,133.031 73.356,0 133.036,-59.678 133.036,-133.031 0,-36.269 -13.009,-69.683 -36.628,-94.09 -24.31,-25.113 -58.546,-38.943 -96.408,-38.943 C 59.672,-133.033 0,-73.355 0,0 m -3.232,0 c 0,-75.139 61.122,-136.267 136.254,-136.267 38.745,0 73.809,14.181 98.727,39.93 24.209,25.011 37.541,59.225 37.541,96.337 0,75.134 -61.131,136.264 -136.268,136.264 C 57.89,136.264 -3.232,75.134 -3.232,0" /></g><g
           transform="translate(266.9106,580.3285)"
           id="g196"><path
             id="path198"
             style="fill:#007547;fill-opacity:1;fill-rule:nonzero;stroke:none"
             d="m 0,0 0.41,2.718 c 0,0 -1.267,7.787 -14.587,8.975 0,0 11.058,2.182 13.32,-2.795 L 1.245,5.638 1.48,8.74 0.677,10.655 c 0,0 -4.517,7.693 -11.441,6.515 0,0 3.784,6.8 10.432,-0.836 0.005,-0.018 0.022,-0.032 0.04,-0.052 6.656,-7.703 0.702,-2.55 0.702,-2.55 l 0.835,1.808 c 0,0 -3.386,3.995 2.577,10.814 L 3.25,16.728 c 0,0 -1.839,4.289 13.018,7.242 0,0 -9.21,-2.501 -12.294,-14.361 L 4.088,8.281 c 0,0 3.84,9.358 11.476,3.277 0,0 -7.499,0 -11.742,-6.826 V 2.836 c 0,0 5.252,6.649 12.175,0.86 0,0 -9.933,0.729 -11.458,-3.394 v -1.347 l -4.684,-0.152 z" /></g><g
           transform="translate(273.9688,634.2396)"
           id="g200"><path
             id="path202"
             style="fill:#007547;fill-opacity:1;fill-rule:nonzero;stroke:none"
             d="M 0,0 C 0,0 6.212,2.951 21.82,0 L 22.683,-9.336 -1.415,-9.483 Z" /></g><g
           transform="translate(232.3433,568.3773)"
           id="g204"><path
             id="path206"
             style="fill:#007547;fill-opacity:1;fill-rule:nonzero;stroke:none"
             d="m 0,0 c 0,0 -2.875,6.491 -0.166,22.774 l 8.933,0.97 0.32,-25.165 z" /></g><g
           transform="translate(256.1196,533.5199)"
           id="g208"><path
             id="path210"
             style="fill:#007547;fill-opacity:1;fill-rule:nonzero;stroke:none"
             d="m 0,0 c 0,0 -6.473,2.291 -15.913,15.631 l 5.469,7.386 L 7.244,5.93 Z" /></g><g
           transform="translate(296.2764,526.2767)"
           id="g212"><path
             id="path214"
             style="fill:#007547;fill-opacity:1;fill-rule:nonzero;stroke:none"
             d="M 0,0 C 0,0 -6.192,-3.087 -21.831,-0.344 L -22.817,8.975 1.284,9.492 Z" /></g><g
           transform="translate(314.5732,625.6312)"
           id="g216"><path
             id="path218"
             style="fill:#007547;fill-opacity:1;fill-rule:nonzero;stroke:none"
             d="M 0,0 C 0,0 6.422,-2.474 15.479,-16.048 L 9.833,-23.315 -7.376,-5.694 Z" /></g><g
           transform="translate(334.0918,591.8197)"
           id="g220"><path
             id="path222"
             style="fill:#007547;fill-opacity:1;fill-rule:nonzero;stroke:none"
             d="M 0,0 C 0,0 2.909,-7.192 0.852,-24.329 L -7.509,-24.44 -8.549,2.384 Z" /></g><g
           transform="translate(330.2354,550.0453)"
           id="g224"><path
             id="path226"
             style="fill:#007547;fill-opacity:1;fill-rule:nonzero;stroke:none"
             d="m 0,0 c 0,0 -2.445,-6.673 -15.549,-15.967 l -6.855,6.024 17.049,17.755 z" /></g><g
           transform="translate(240.0044,608.8392)"
           id="g228"><path
             id="path230"
             style="fill:#007547;fill-opacity:1;fill-rule:nonzero;stroke:none"
             d="M 0,0 C 0,0 2.128,6.848 14.714,16.836 L 21.864,11.24 5.706,-7.494 Z" /></g><g
           transform="translate(325.5088,554.1097)"
           id="g232"><path
             id="path234"
             style="fill:#007547;fill-opacity:1;fill-rule:nonzero;stroke:none"
             d="m 0,0 2.175,-1.797 10.156,-8.406 10.746,67.491 c 0,0 0.285,9.485 9.928,6.842 h 1.405 l -0.285,-3.537 -2.257,0.277 c 0,0 -2.526,0.29 -2.819,-5.62 l -6.791,-80.006 -51.012,-17.152 -7.924,1.765 40.514,18.96 -6.527,5.635 2.275,5.345 1.692,6.782" /></g><g
           transform="translate(257.2744,610.1605)"
           id="g236"><path
             id="path238"
             style="fill:#007547;fill-opacity:1;fill-rule:nonzero;stroke:none"
             d="m 0,0 -29.02,24.079 1.974,-8.624 13.307,-10.913 8.221,-6.833 z" /></g><g
           transform="translate(285.1533,621.7679)"
           id="g240"><path
             id="path242"
             style="fill:#006f41;fill-opacity:1;fill-rule:nonzero;stroke:none"
             d="M 0,0 -0.289,-41.723" /></g><g
           id="g244"><g
             id="g246" /><g
             id="g258"><g
               id="g256"
               clip-path="url(#clipPath250)"><g
                 id="g254"
                 transform="translate(285.1533,620.2474)"><path
                   id="path252"
                   style="fill:#231f20;fill-opacity:1;fill-rule:nonzero;stroke:none"
                   d="M 0,0 -0.289,-40.202" /></g></g></g></g><g
           transform="translate(283.2485,580.056)"
           id="g260"><path
             id="path262"
             style="fill:#007547;fill-opacity:1;fill-rule:nonzero;stroke:none"
             d="M 0,0 3.232,-0.023 3.521,40.179 0.288,40.202 Z" /></g><g
           transform="translate(244.1035,579.433)"
           id="g264"><path
             id="path266"
             style="fill:#006f41;fill-opacity:1;fill-rule:nonzero;stroke:none"
             d="M 0,0 81.291,-0.302" /></g><g
           id="g268"><g
             id="g270" /><g
             id="g282"><g
               id="g280"
               clip-path="url(#clipPath274)"><g
                 id="g278"
                 transform="translate(245.3174,579.433)"><path
                   id="path276"
                   style="fill:#ffffff;fill-opacity:1;fill-rule:nonzero;stroke:none"
                   d="M 0,0 78.814,-0.302" /></g></g></g></g><g
           transform="translate(245.3081,577.8168)"
           id="g284"><path
             id="path286"
             style="fill:#007547;fill-opacity:1;fill-rule:nonzero;stroke:none"
             d="m 0,0 78.819,-0.3 0.01,3.232 -78.816,0.3 z" /></g><g
           transform="translate(247.9116,580.0453)"
           id="g288"><path
             id="path290"
             style="fill:#0b7146;fill-opacity:1;fill-rule:nonzero;stroke:none"
             d="m 0,0 c 0,20.778 16.579,37.681 36.953,37.681 9.872,0 19.146,-3.913 26.124,-11.021 C 70.06,19.542 73.909,10.074 73.909,0 73.909,-10.107 70.06,-19.595 63.077,-26.717 56.104,-33.82 46.829,-37.735 36.953,-37.735 16.579,-37.735 0,-20.808 0,0 m -8.082,0 c 0,-25.262 20.2,-45.816 45.035,-45.816 12.061,0 23.388,4.772 31.89,13.437 8.477,8.646 13.15,20.143 13.15,32.379 0,12.205 -4.673,23.684 -13.15,32.322 -8.51,8.669 -19.834,13.441 -31.89,13.441 C 12.118,45.763 -8.082,25.233 -8.082,0" /></g><g
           transform="translate(292.3164,560.6341)"
           id="g292"><path
             id="path294"
             style="fill:#007547;fill-opacity:1;fill-rule:nonzero;stroke:none"
             d="m 0,0 -0.175,-1.43 -3.498,2.099 8.917,6.875 1.48,-1.874 2.65,0.11 0.585,2.799 5.946,0.452 0.264,1.624 -0.52,1.052 H 9.677 v 1.298 L 8.288,11.858 6.724,11.967 v 3.269 H 5.562 L 5.313,11.707 v -1.186 l -13.8,-6.843 -1.171,1.947 h -2.831 l -0.078,3.164 2.254,0.242 0.086,2.292 -2.532,0.068 c 0,0 -1.952,0.576 -1.952,-1.782 V 5.333 h -2.163 v 3.246 l -0.683,1.322 -2.305,0.301 -0.123,1.505 -3.097,0.151 -0.131,-1.046 -2.053,0.135 -0.796,-1.783 -0.772,0.595 h -3.731 l -0.135,-1.322 -1.438,-1.152 -0.1,-3.472 0.611,-1.748 2.18,-1.639 0.284,-4.289 h -3.478 v -0.739 l 5.024,-0.45 1.818,-1.02 2.843,0.561 0.131,1.648 1.425,-0.136 v -2.073 c 0,0 1.804,-1.942 4.901,-0.293 v 3.243 h 1.677 l -0.052,-1.395 c 0,0 0.298,-5.278 3.002,-5.989 0,0 5.303,-1.648 6.076,1.915 l 0.27,2.049 1.368,-0.132 1.506,-1.758 -1.253,-3.805 3.805,2.442 2.307,-0.292 1.406,7.284 -3.713,1.74 1.011,0.132" /></g><g
           transform="translate(296.3481,557.7572)"
           id="g296"><path
             id="path298"
             style="fill:#007547;fill-opacity:1;fill-rule:nonzero;stroke:none"
             d="m 0,0 2.617,-0.62 1.39,1.472 -1.739,0.845 0.219,1.18 c 0,0 4.393,-1.489 6.648,-1.064 l 2.068,1.366 2.335,0.499 -1.846,-3.654 c 0,0 -2.557,-2.041 -5.41,-0.488 L 3.252,-1.833 1.983,-2.523 1.398,-2.902 -0.559,-3.58 Z" /></g><g
           transform="translate(293.2271,579.9369)"
           id="g300"><path
             id="path302"
             style="fill:#007547;fill-opacity:1;fill-rule:nonzero;stroke:none"
             d="m 0,0 -0.098,3.629 -1.013,0.777 c 0,0 -1.874,10.436 -4.958,5.261 l -0.118,2.166 c 0,0 1.254,6.138 4.115,0.98 0,0 0.734,3.227 -1.621,4.306 -2.376,1.084 2.775,1.705 3.058,-1.632 0.302,-3.344 -0.703,10.697 -4.298,13.037 0,0 3.695,-1.595 4.6,-8.177 0,0 0,9.6 -1.207,8.177 0,0 2.348,-0.517 3.582,-6.772 l 0.52,-2.694 0.726,3.448 c 0,0 2.991,8.872 4.609,4.633 0,0 -2.542,-1.623 -1.822,-3.891 0.698,-2.265 0,-0.291 0,-0.291 0,0 2.254,3.418 3.393,2.014 0,0 -2.04,-2.465 -1.449,-2.894 0.628,-0.426 2.585,3.982 5.564,1.413 l 1.23,-2.173 c 0,0 -4.54,2.684 -4.928,-1.623 0,0 4.522,2.058 7.395,-2.468 l 0.127,-3.042 c 0,0 3.201,-0.385 3.271,-4.183 V 9.667 c -0.091,-4.082 -0.28,-0.963 -0.28,-0.963 0,0 -1.371,2.477 -4.144,2.477 -2.761,0 -0.196,0.416 -0.196,0.416 l 0.523,-3.301 h 0.699 c 0,0 0.638,-1.533 -0.065,-3.037 0,0 0.8,-2.275 0.604,-2.8 -0.221,-0.539 -1.238,-0.653 -2.178,2.282 0,0 -1.234,0.201 -0.902,2.256 0,0 -1.448,-0.45 -2.6,2.018 C 11.011,11.5 11.837,8.906 11.837,8.906 l -4.595,2.652 c 6.302,-7.152 5.992,-4.292 5.976,-4.751 0.795,-0.694 -0.463,17.411 1.991,-4.718 0,0 -5.741,14.108 -3.07,6.926 0,0 0.826,-2.208 -0.603,-2.208 0,0 -3.517,2.432 -5.386,0.075 0,0 -1.206,-2.066 -1.206,-3.898 l -0.12,-3.337 z" /></g><g
           transform="translate(213.9429,453.4969)"
           id="g304"><path
             id="path306"
             style="fill:#115786;fill-opacity:1;fill-rule:nonzero;stroke:none"
             d="m 0,0 c -0.249,0.087 -0.64,0.173 -1.175,0.257 -0.536,0.084 -1.148,0.16 -1.837,0.226 -0.689,0.067 -1.414,0.12 -2.175,0.158 -0.76,0.038 -1.481,0.06 -2.163,0.066 -0.681,0.004 -1.282,-0.013 -1.802,-0.052 -0.52,-0.04 -0.898,-0.106 -1.134,-0.199 0.427,-0.315 0.863,-0.704 1.306,-1.167 0.443,-0.462 0.876,-0.972 1.299,-1.529 0.422,-0.556 0.818,-1.141 1.188,-1.753 0.369,-0.612 0.701,-1.225 0.993,-1.84 0.292,-0.615 0.521,-1.21 0.688,-1.785 0.166,-0.576 0.253,-1.11 0.264,-1.603 z m 3.145,0.905 c 1.055,-0.636 1.988,-1.39 2.8,-2.261 0.813,-0.871 1.448,-1.806 1.906,-2.804 0.458,-0.998 0.7,-2.029 0.727,-3.093 0.026,-1.065 -0.219,-2.12 -0.735,-3.166 -0.212,-0.43 -0.515,-0.832 -0.909,-1.207 -0.394,-0.375 -0.838,-0.678 -1.333,-0.911 -0.495,-0.232 -1.012,-0.369 -1.552,-0.41 -0.54,-0.042 -1.06,0.061 -1.559,0.307 -0.397,0.196 -0.86,0.563 -1.386,1.102 -0.526,0.538 -0.971,1.21 -1.333,2.017 l 2.091,0.85 c 0.471,-1.023 0.906,-1.632 1.304,-1.828 0.244,-0.121 0.502,-0.164 0.772,-0.129 0.271,0.035 0.523,0.128 0.757,0.281 0.233,0.152 0.446,0.334 0.64,0.546 0.193,0.213 0.343,0.426 0.449,0.641 0.341,0.691 0.483,1.435 0.425,2.23 -0.058,0.795 -0.261,1.566 -0.608,2.312 -0.348,0.746 -0.813,1.429 -1.395,2.047 -0.582,0.618 -1.225,1.1 -1.928,1.447 l -0.107,0.053 -7.831,-15.877 -2.171,1.071 1.68,3.405 c 0.048,0.51 0,1.118 -0.147,1.823 -0.146,0.705 -0.366,1.455 -0.658,2.25 -0.292,0.795 -0.648,1.603 -1.065,2.424 -0.419,0.822 -0.874,1.59 -1.365,2.302 -0.491,0.713 -1.007,1.377 -1.546,1.991 -0.54,0.615 -1.298,1.087 -2.275,1.418 l -0.08,2.653 c 2.515,0.421 4.967,0.582 7.357,0.483 2.39,-0.099 4.692,-0.397 6.904,-0.896 l 0.878,1.779 -14.906,7.352 0.981,1.99 27.29,-13.459 -0.982,-1.99 -10.212,5.037 z" /></g><g
           transform="translate(213.9429,453.4969)"
           id="g308"><path
             id="path310"
             style="fill:none;stroke:#115786;stroke-width:0.40000001;stroke-linecap:butt;stroke-linejoin:miter;stroke-miterlimit:10;stroke-dasharray:none;stroke-opacity:1"
             d="m 0,0 c -0.249,0.087 -0.64,0.173 -1.175,0.257 -0.536,0.084 -1.148,0.16 -1.837,0.226 -0.689,0.067 -1.414,0.12 -2.175,0.158 -0.76,0.038 -1.481,0.06 -2.163,0.066 -0.681,0.004 -1.282,-0.013 -1.802,-0.052 -0.52,-0.04 -0.898,-0.106 -1.134,-0.199 0.427,-0.315 0.863,-0.704 1.306,-1.167 0.443,-0.462 0.876,-0.972 1.299,-1.529 0.422,-0.556 0.818,-1.141 1.188,-1.753 0.369,-0.612 0.701,-1.225 0.993,-1.84 0.292,-0.615 0.521,-1.21 0.688,-1.785 0.166,-0.576 0.253,-1.11 0.264,-1.603 z m 3.145,0.905 c 1.055,-0.636 1.988,-1.39 2.8,-2.261 0.813,-0.871 1.448,-1.806 1.906,-2.804 0.458,-0.998 0.7,-2.029 0.727,-3.093 0.026,-1.065 -0.219,-2.12 -0.735,-3.166 -0.212,-0.43 -0.515,-0.832 -0.909,-1.207 -0.394,-0.375 -0.838,-0.678 -1.333,-0.911 -0.495,-0.232 -1.012,-0.369 -1.552,-0.41 -0.54,-0.042 -1.06,0.061 -1.559,0.307 -0.397,0.196 -0.86,0.563 -1.386,1.102 -0.526,0.538 -0.971,1.21 -1.333,2.017 l 2.091,0.85 c 0.471,-1.023 0.906,-1.632 1.304,-1.828 0.244,-0.121 0.502,-0.164 0.772,-0.129 0.271,0.035 0.523,0.128 0.757,0.281 0.233,0.152 0.446,0.334 0.64,0.546 0.193,0.213 0.343,0.426 0.449,0.641 0.341,0.691 0.483,1.435 0.425,2.23 -0.058,0.795 -0.261,1.566 -0.608,2.312 -0.348,0.746 -0.813,1.429 -1.395,2.047 -0.582,0.618 -1.225,1.1 -1.928,1.447 l -0.107,0.053 -7.831,-15.877 -2.171,1.071 1.68,3.405 c 0.048,0.51 0,1.118 -0.147,1.823 -0.146,0.705 -0.366,1.455 -0.658,2.25 -0.292,0.795 -0.648,1.603 -1.065,2.424 -0.419,0.822 -0.874,1.59 -1.365,2.302 -0.491,0.713 -1.007,1.377 -1.546,1.991 -0.54,0.615 -1.298,1.087 -2.275,1.418 l -0.08,2.653 c 2.515,0.421 4.967,0.582 7.357,0.483 2.39,-0.099 4.692,-0.397 6.904,-0.896 l 0.878,1.779 -14.906,7.352 0.981,1.99 27.29,-13.459 -0.982,-1.99 -10.212,5.037 z" /></g><g
           transform="translate(198.6411,435.9301)"
           id="g312"><path
             id="path314"
             style="fill:#115786;fill-opacity:1;fill-rule:nonzero;stroke:none"
             d="M 0,0 8.047,1.795 9.511,3.52 9.677,-0.305 4.105,-1.577 10.384,-10.266 8.278,-11.572 Z" /></g><g
           transform="translate(198.6411,435.9301)"
           id="g316"><path
             id="path318"
             style="fill:none;stroke:#115786;stroke-width:0.40000001;stroke-linecap:butt;stroke-linejoin:miter;stroke-miterlimit:10;stroke-dasharray:none;stroke-opacity:1"
             d="M 0,0 8.047,1.795 9.511,3.52 9.677,-0.305 4.105,-1.577 10.384,-10.266 8.278,-11.572 Z" /></g><g
           transform="translate(232.9062,450.0238)"
           id="g320"><path
             id="path322"
             style="fill:#115786;fill-opacity:1;fill-rule:nonzero;stroke:none"
             d="m 0,0 c 0.947,-0.73 2.051,-1.873 3.313,-3.426 1.262,-1.553 2.69,-3.549 4.283,-5.985 l 2.029,6.323 z m 6.551,-12.669 c -0.22,0.617 -0.603,1.404 -1.149,2.362 C 4.856,-9.35 4.167,-8.234 3.334,-6.96 2.097,-7.319 0.979,-7.707 -0.02,-8.125 c -1,-0.417 -1.914,-0.859 -2.744,-1.326 3.551,-1.544 6.119,-4.288 7.706,-8.232 z m -2.769,-8.63 c -0.579,1.619 -1.149,2.994 -1.71,4.127 -0.562,1.131 -1.174,2.09 -1.834,2.877 -0.661,0.786 -1.382,1.431 -2.164,1.933 -0.782,0.503 -1.671,0.93 -2.667,1.283 l -1.119,2.984 c 0.574,0.341 1.484,0.76 2.73,1.257 1.246,0.498 2.857,1.075 4.834,1.731 -0.641,0.83 -1.49,1.783 -2.546,2.86 -1.057,1.078 -2.33,2.309 -3.819,3.695 L -6.038,1.937 -5.36,4.05 16.065,-2.824 15.387,-4.937 11.93,-3.828 5.242,-24.671 2.937,-23.932 Z" /></g><g
           transform="translate(232.9062,450.0238)"
           id="g324"><path
             id="path326"
             style="fill:none;stroke:#115786;stroke-width:0.40000001;stroke-linecap:butt;stroke-linejoin:miter;stroke-miterlimit:10;stroke-dasharray:none;stroke-opacity:1"
             d="m 0,0 c 0.947,-0.73 2.051,-1.873 3.313,-3.426 1.262,-1.553 2.69,-3.549 4.283,-5.985 l 2.029,6.323 z m 6.551,-12.669 c -0.22,0.617 -0.603,1.404 -1.149,2.362 C 4.856,-9.35 4.167,-8.234 3.334,-6.96 2.097,-7.319 0.979,-7.707 -0.02,-8.125 c -1,-0.417 -1.914,-0.859 -2.744,-1.326 3.551,-1.544 6.119,-4.288 7.706,-8.232 z m -2.769,-8.63 c -0.579,1.619 -1.149,2.994 -1.71,4.127 -0.562,1.131 -1.174,2.09 -1.834,2.877 -0.661,0.786 -1.382,1.431 -2.164,1.933 -0.782,0.503 -1.671,0.93 -2.667,1.283 l -1.119,2.984 c 0.574,0.341 1.484,0.76 2.73,1.257 1.246,0.498 2.857,1.075 4.834,1.731 -0.641,0.83 -1.49,1.783 -2.546,2.86 -1.057,1.078 -2.33,2.309 -3.819,3.695 L -6.038,1.937 -5.36,4.05 16.065,-2.824 15.387,-4.937 11.93,-3.828 5.242,-24.671 2.937,-23.932 Z" /></g><g
           transform="translate(257.2627,423.6102)"
           id="g328"><path
             id="path330"
             style="fill:#115786;fill-opacity:1;fill-rule:nonzero;stroke:none"
             d="m 0,0 c -0.655,-0.764 -1.383,-1.264 -2.185,-1.499 -0.801,-0.236 -1.696,-0.247 -2.684,-0.031 -1.333,0.29 -2.425,0.843 -3.277,1.657 -0.852,0.814 -1.494,1.778 -1.926,2.89 -0.433,1.112 -0.676,2.306 -0.729,3.581 -0.054,1.275 0.051,2.518 0.315,3.73 0.213,0.977 0.586,1.983 1.119,3.018 0.534,1.035 1.191,2.008 1.971,2.921 0.78,0.912 1.662,1.717 2.646,2.414 0.983,0.697 2.025,1.198 3.127,1.502 L -12,22.443 -11.527,24.611 4.212,21.183 3.76,19.106 C 2.126,19.025 0.638,18.709 -0.703,18.159 -2.044,17.609 -3.229,16.881 -4.258,15.975 -5.287,15.069 -6.146,14.009 -6.835,12.794 -7.524,11.58 -8.025,10.255 -8.337,8.82 -8.441,8.341 -8.488,7.821 -8.477,7.259 -8.465,6.697 -8.406,6.13 -8.298,5.557 -8.19,4.984 -8.029,4.43 -7.814,3.893 -7.6,3.355 -7.345,2.868 -7.051,2.431 c 0.294,-0.437 0.627,-0.808 0.996,-1.112 0.37,-0.305 0.772,-0.504 1.205,-0.598 0.355,-0.078 0.657,-0.122 0.904,-0.134 0.248,-0.011 0.489,0.017 0.725,0.082 0.235,0.066 0.48,0.176 0.734,0.329 0.254,0.152 0.56,0.355 0.918,0.607 C -1.209,1.175 -0.687,0.64 0,0" /></g><g
           transform="translate(257.2627,423.6102)"
           id="g332"><path
             id="path334"
             style="fill:none;stroke:#115786;stroke-width:0.40000001;stroke-linecap:butt;stroke-linejoin:miter;stroke-miterlimit:10;stroke-dasharray:none;stroke-opacity:1"
             d="m 0,0 c -0.655,-0.764 -1.383,-1.264 -2.185,-1.499 -0.801,-0.236 -1.696,-0.247 -2.684,-0.031 -1.333,0.29 -2.425,0.843 -3.277,1.657 -0.852,0.814 -1.494,1.778 -1.926,2.89 -0.433,1.112 -0.676,2.306 -0.729,3.581 -0.054,1.275 0.051,2.518 0.315,3.73 0.213,0.977 0.586,1.983 1.119,3.018 0.534,1.035 1.191,2.008 1.971,2.921 0.78,0.912 1.662,1.717 2.646,2.414 0.983,0.697 2.025,1.198 3.127,1.502 L -12,22.443 -11.527,24.611 4.212,21.183 3.76,19.106 C 2.126,19.025 0.638,18.709 -0.703,18.159 -2.044,17.609 -3.229,16.881 -4.258,15.975 -5.287,15.069 -6.146,14.009 -6.835,12.794 -7.524,11.58 -8.025,10.255 -8.337,8.82 -8.441,8.341 -8.488,7.821 -8.477,7.259 -8.465,6.697 -8.406,6.13 -8.298,5.557 -8.19,4.984 -8.029,4.43 -7.814,3.893 -7.6,3.355 -7.345,2.868 -7.051,2.431 c 0.294,-0.437 0.627,-0.808 0.996,-1.112 0.37,-0.305 0.772,-0.504 1.205,-0.598 0.355,-0.078 0.657,-0.122 0.904,-0.134 0.248,-0.011 0.489,0.017 0.725,0.082 0.235,0.066 0.48,0.176 0.734,0.329 0.254,0.152 0.56,0.355 0.918,0.607 C -1.209,1.175 -0.687,0.64 0,0 Z" /></g><g
           transform="translate(273.1821,436.9711)"
           id="g336"><path
             id="path338"
             style="fill:#115786;fill-opacity:1;fill-rule:nonzero;stroke:none"
             d="m 0,0 c -0.263,-0.005 -0.66,-0.062 -1.191,-0.17 -0.531,-0.109 -1.13,-0.253 -1.799,-0.431 -0.67,-0.179 -1.367,-0.383 -2.093,-0.613 -0.726,-0.231 -1.408,-0.463 -2.049,-0.697 -0.64,-0.234 -1.197,-0.46 -1.67,-0.679 -0.474,-0.219 -0.804,-0.413 -0.993,-0.583 0.511,-0.146 1.055,-0.358 1.632,-0.636 0.577,-0.278 1.161,-0.604 1.752,-0.978 0.59,-0.373 1.165,-0.782 1.726,-1.226 0.561,-0.444 1.085,-0.903 1.575,-1.376 0.489,-0.473 0.912,-0.951 1.269,-1.432 0.357,-0.481 0.626,-0.95 0.808,-1.408 z M 2.629,1.949 C 3.84,1.722 4.979,1.343 6.044,0.811 7.11,0.279 8.032,-0.374 8.811,-1.148 c 0.778,-0.775 1.366,-1.657 1.763,-2.644 0.397,-0.988 0.537,-2.062 0.42,-3.223 -0.048,-0.477 -0.191,-0.96 -0.429,-1.448 -0.238,-0.489 -0.548,-0.929 -0.93,-1.32 -0.382,-0.391 -0.819,-0.7 -1.31,-0.927 -0.492,-0.228 -1.014,-0.314 -1.568,-0.258 -0.441,0.044 -1.003,0.226 -1.684,0.547 C 4.392,-10.102 3.74,-9.627 3.118,-9 l 1.662,1.529 c 0.799,-0.793 1.42,-1.211 1.861,-1.256 0.271,-0.027 0.527,0.023 0.769,0.15 0.241,0.128 0.444,0.304 0.61,0.528 0.165,0.224 0.301,0.469 0.408,0.736 0.107,0.267 0.172,0.519 0.197,0.757 0.077,0.767 -0.051,1.513 -0.383,2.238 C 7.91,-3.594 7.45,-2.943 6.863,-2.365 6.276,-1.788 5.601,-1.312 4.84,-0.936 4.078,-0.561 3.307,-0.334 2.527,-0.255 l -0.119,0.012 -1.778,-17.613 -2.408,0.242 0.382,3.778 c -0.134,0.495 -0.392,1.047 -0.776,1.657 -0.384,0.609 -0.852,1.235 -1.404,1.877 -0.552,0.641 -1.168,1.274 -1.847,1.898 -0.68,0.623 -1.374,1.183 -2.083,1.678 -0.71,0.496 -1.425,0.937 -2.145,1.324 -0.721,0.387 -1.597,0.564 -2.628,0.532 l -1.003,2.457 c 2.207,1.275 4.448,2.284 6.722,3.028 2.274,0.744 4.534,1.27 6.781,1.577 L 0.42,4.167 -16.116,5.835 -15.893,8.043 14.381,4.987 14.158,2.78 2.829,3.923 Z" /></g><g
           transform="translate(273.1821,436.9711)"
           id="g340"><path
             id="path342"
             style="fill:none;stroke:#115786;stroke-width:0.40000001;stroke-linecap:butt;stroke-linejoin:miter;stroke-miterlimit:10;stroke-dasharray:none;stroke-opacity:1"
             d="m 0,0 c -0.263,-0.005 -0.66,-0.062 -1.191,-0.17 -0.531,-0.109 -1.13,-0.253 -1.799,-0.431 -0.67,-0.179 -1.367,-0.383 -2.093,-0.613 -0.726,-0.231 -1.408,-0.463 -2.049,-0.697 -0.64,-0.234 -1.197,-0.46 -1.67,-0.679 -0.474,-0.219 -0.804,-0.413 -0.993,-0.583 0.511,-0.146 1.055,-0.358 1.632,-0.636 0.577,-0.278 1.161,-0.604 1.752,-0.978 0.59,-0.373 1.165,-0.782 1.726,-1.226 0.561,-0.444 1.085,-0.903 1.575,-1.376 0.489,-0.473 0.912,-0.951 1.269,-1.432 0.357,-0.481 0.626,-0.95 0.808,-1.408 z M 2.629,1.949 C 3.84,1.722 4.979,1.343 6.044,0.811 7.11,0.279 8.032,-0.374 8.811,-1.148 c 0.778,-0.775 1.366,-1.657 1.763,-2.644 0.397,-0.988 0.537,-2.062 0.42,-3.223 -0.048,-0.477 -0.191,-0.96 -0.429,-1.448 -0.238,-0.489 -0.548,-0.929 -0.93,-1.32 -0.382,-0.391 -0.819,-0.7 -1.31,-0.927 -0.492,-0.228 -1.014,-0.314 -1.568,-0.258 -0.441,0.044 -1.003,0.226 -1.684,0.547 C 4.392,-10.102 3.74,-9.627 3.118,-9 l 1.662,1.529 c 0.799,-0.793 1.42,-1.211 1.861,-1.256 0.271,-0.027 0.527,0.023 0.769,0.15 0.241,0.128 0.444,0.304 0.61,0.528 0.165,0.224 0.301,0.469 0.408,0.736 0.107,0.267 0.172,0.519 0.197,0.757 0.077,0.767 -0.051,1.513 -0.383,2.238 C 7.91,-3.594 7.45,-2.943 6.863,-2.365 6.276,-1.788 5.601,-1.312 4.84,-0.936 4.078,-0.561 3.307,-0.334 2.527,-0.255 l -0.119,0.012 -1.778,-17.613 -2.408,0.242 0.382,3.778 c -0.134,0.495 -0.392,1.047 -0.776,1.657 -0.384,0.609 -0.852,1.235 -1.404,1.877 -0.552,0.641 -1.168,1.274 -1.847,1.898 -0.68,0.623 -1.374,1.183 -2.083,1.678 -0.71,0.496 -1.425,0.937 -2.145,1.324 -0.721,0.387 -1.597,0.564 -2.628,0.532 l -1.003,2.457 c 2.207,1.275 4.448,2.284 6.722,3.028 2.274,0.744 4.534,1.27 6.781,1.577 L 0.42,4.167 -16.116,5.835 -15.893,8.043 14.381,4.987 14.158,2.78 2.829,3.923 Z" /></g><g
           transform="translate(295.0713,425.0179)"
           id="g344"><path
             id="path346"
             style="fill:#115786;fill-opacity:1;fill-rule:nonzero;stroke:none"
             d="M 0,0 C 0.772,0.026 1.413,-0.176 1.922,-0.607 2.432,-1.038 2.699,-1.612 2.723,-2.331 2.748,-3.049 2.521,-3.643 2.042,-4.113 1.563,-4.583 0.938,-4.831 0.166,-4.857 c -0.784,-0.026 -1.425,0.178 -1.923,0.615 -0.498,0.436 -0.76,1.013 -0.784,1.732 -0.024,0.718 0.197,1.309 0.665,1.774 C -1.409,-0.272 -0.784,-0.027 0,0 M 6.02,11.54 C 5.692,11.456 5.271,11.313 4.755,11.114 4.239,10.914 3.687,10.681 3.099,10.416 2.511,10.151 1.904,9.859 1.278,9.541 0.652,9.223 0.06,8.908 -0.498,8.597 -1.056,8.286 -1.558,7.988 -2.002,7.702 -2.448,7.416 -2.78,7.165 -3,6.949 -2.59,6.921 -2.098,6.815 -1.522,6.631 -0.948,6.448 -0.343,6.205 0.293,5.904 0.929,5.603 1.566,5.262 2.204,4.882 2.842,4.503 3.442,4.106 4.001,3.693 4.562,3.28 5.053,2.869 5.477,2.461 5.899,2.054 6.196,1.681 6.367,1.343 Z M 9.047,-6.211 6.628,-6.294 6.497,-2.452 C 6.346,-2.02 6.054,-1.535 5.62,-0.997 5.187,-0.459 4.661,0.091 4.046,0.654 3.43,1.216 2.751,1.764 2.011,2.296 1.271,2.829 0.519,3.303 -0.246,3.72 -1.011,4.137 -1.759,4.466 -2.489,4.707 -3.219,4.948 -3.874,5.058 -4.453,5.039 -4.578,5.034 -4.694,5.025 -4.802,5.011 -4.91,4.997 -5.008,4.973 -5.098,4.938 l -1.647,2.289 c 3.857,2.925 8.087,5.091 12.69,6.499 l -0.063,1.858 -15.197,-0.518 -0.076,2.218 21.04,0.717 0.077,-2.217 -3.425,-0.117 z" /></g><g
           transform="translate(295.0713,425.0179)"
           id="g348"><path
             id="path350"
             style="fill:none;stroke:#115786;stroke-width:0.40000001;stroke-linecap:butt;stroke-linejoin:miter;stroke-miterlimit:10;stroke-dasharray:none;stroke-opacity:1"
             d="M 0,0 C 0.772,0.026 1.413,-0.176 1.922,-0.607 2.432,-1.038 2.699,-1.612 2.723,-2.331 2.748,-3.049 2.521,-3.643 2.042,-4.113 1.563,-4.583 0.938,-4.831 0.166,-4.857 c -0.784,-0.026 -1.425,0.178 -1.923,0.615 -0.498,0.436 -0.76,1.013 -0.784,1.732 -0.024,0.718 0.197,1.309 0.665,1.774 C -1.409,-0.272 -0.784,-0.027 0,0 Z M 6.02,11.54 C 5.692,11.456 5.271,11.313 4.755,11.114 4.239,10.914 3.687,10.681 3.099,10.416 2.511,10.151 1.904,9.859 1.278,9.541 0.652,9.223 0.06,8.908 -0.498,8.597 -1.056,8.286 -1.558,7.988 -2.002,7.702 -2.448,7.416 -2.78,7.165 -3,6.949 -2.59,6.921 -2.098,6.815 -1.522,6.631 -0.948,6.448 -0.343,6.205 0.293,5.904 0.929,5.603 1.566,5.262 2.204,4.882 2.842,4.503 3.442,4.106 4.001,3.693 4.562,3.28 5.053,2.869 5.477,2.461 5.899,2.054 6.196,1.681 6.367,1.343 Z M 9.047,-6.211 6.628,-6.294 6.497,-2.452 C 6.346,-2.02 6.054,-1.535 5.62,-0.997 5.187,-0.459 4.661,0.091 4.046,0.654 3.43,1.216 2.751,1.764 2.011,2.296 1.271,2.829 0.519,3.303 -0.246,3.72 -1.011,4.137 -1.759,4.466 -2.489,4.707 -3.219,4.948 -3.874,5.058 -4.453,5.039 -4.578,5.034 -4.694,5.025 -4.802,5.011 -4.91,4.997 -5.008,4.973 -5.098,4.938 l -1.647,2.289 c 3.857,2.925 8.087,5.091 12.69,6.499 l -0.063,1.858 -15.197,-0.518 -0.076,2.218 21.04,0.717 0.077,-2.217 -3.425,-0.117 z" /></g><g
           transform="translate(323.5244,443.4325)"
           id="g352"><path
             id="path354"
             style="fill:#115786;fill-opacity:1;fill-rule:nonzero;stroke:none"
             d="m 0,0 2.189,-9.854 c 1.158,2.231 2.566,4.078 4.226,5.541 1.66,1.462 3.634,2.549 5.92,3.26 l 2.322,-0.941 c -0.487,-1.421 -0.72,-2.913 -0.699,-4.477 0.021,-1.564 0.207,-3.134 0.558,-4.71 0.277,-1.251 0.64,-2.477 1.088,-3.679 0.447,-1.203 0.951,-2.356 1.51,-3.458 l -2.098,-0.851 c -0.635,1.022 -1.186,2.14 -1.654,3.354 -0.467,1.214 -0.844,2.467 -1.132,3.758 -0.304,1.373 -0.501,2.756 -0.59,4.151 -0.088,1.394 -0.054,2.759 0.103,4.096 C 9.787,-4.49 8.113,-5.697 6.724,-7.43 5.333,-9.163 4.113,-11.31 3.063,-13.869 l -2.709,1.111 -2.717,12.233 -3.627,-0.806 -0.482,2.166 21.068,4.68 0.481,-2.166 z" /></g><g
           transform="translate(323.5244,443.4325)"
           id="g356"><path
             id="path358"
             style="fill:none;stroke:#115786;stroke-width:0.40000001;stroke-linecap:butt;stroke-linejoin:miter;stroke-miterlimit:10;stroke-dasharray:none;stroke-opacity:1"
             d="m 0,0 2.189,-9.854 c 1.158,2.231 2.566,4.078 4.226,5.541 1.66,1.462 3.634,2.549 5.92,3.26 l 2.322,-0.941 c -0.487,-1.421 -0.72,-2.913 -0.699,-4.477 0.021,-1.564 0.207,-3.134 0.558,-4.71 0.277,-1.251 0.64,-2.477 1.088,-3.679 0.447,-1.203 0.951,-2.356 1.51,-3.458 l -2.098,-0.851 c -0.635,1.022 -1.186,2.14 -1.654,3.354 -0.467,1.214 -0.844,2.467 -1.132,3.758 -0.304,1.373 -0.501,2.756 -0.59,4.151 -0.088,1.394 -0.054,2.759 0.103,4.096 C 9.787,-4.49 8.113,-5.697 6.724,-7.43 5.333,-9.163 4.113,-11.31 3.063,-13.869 l -2.709,1.111 -2.717,12.233 -3.627,-0.806 -0.482,2.166 21.068,4.68 0.481,-2.166 z" /></g><g
           transform="translate(335.6963,419.5443)"
           id="g360"><path
             id="path362"
             style="fill:#115786;fill-opacity:1;fill-rule:nonzero;stroke:none"
             d="M 0,0 C 0.263,0.076 0.511,0.189 0.745,0.343 0.979,0.497 1.187,0.68 1.367,0.894 1.549,1.108 1.698,1.343 1.814,1.598 1.931,1.854 1.998,2.113 2.017,2.379 1.602,2.553 1.174,2.642 0.735,2.647 0.297,2.652 -0.114,2.6 -0.496,2.491 -0.715,2.429 -0.941,2.343 -1.176,2.233 -1.411,2.123 -1.612,1.989 -1.78,1.833 -1.948,1.677 -2.071,1.496 -2.148,1.29 -2.226,1.083 -2.229,0.855 -2.157,0.605 -2.049,0.225 -1.801,-0.012 -1.415,-0.102 -1.028,-0.191 -0.557,-0.158 0,0 M 2.962,8.27 C 3.511,7.505 3.95,6.853 4.281,6.314 4.612,5.774 4.822,5.35 4.91,5.039 4.928,4.979 4.95,4.839 4.977,4.619 5.004,4.399 5.029,4.104 5.053,3.731 5.711,3.496 6.288,3.284 6.785,3.095 7.281,2.907 7.729,2.726 8.127,2.552 8.525,2.378 8.896,2.197 9.239,2.007 9.583,1.818 9.94,1.609 10.313,1.379 10.686,1.15 11.093,0.884 11.533,0.582 11.974,0.279 12.49,-0.08 13.081,-0.496 L 11.642,-2.287 C 9.242,-0.459 6.836,0.811 4.424,1.521 3.835,0.313 3.148,-0.566 2.367,-1.121 1.585,-1.674 0.729,-2.082 -0.199,-2.348 c -0.482,-0.136 -0.955,-0.173 -1.422,-0.111 -0.466,0.063 -0.894,0.203 -1.281,0.422 -0.388,0.221 -0.721,0.51 -1.001,0.869 -0.28,0.359 -0.485,0.77 -0.617,1.23 -0.13,0.461 -0.131,0.929 -0.001,1.405 0.13,0.475 0.355,0.921 0.674,1.337 0.319,0.416 0.719,0.784 1.201,1.106 0.481,0.321 1.011,0.564 1.59,0.729 0.296,0.084 0.736,0.117 1.32,0.1 C 0.848,4.721 1.589,4.65 2.486,4.527 L 2.42,4.947 C 2.314,5.317 1.957,5.887 1.348,6.656 Z" /></g><g
           transform="translate(335.6963,419.5443)"
           id="g364"><path
             id="path366"
             style="fill:none;stroke:#115786;stroke-width:0.40000001;stroke-linecap:butt;stroke-linejoin:miter;stroke-miterlimit:10;stroke-dasharray:none;stroke-opacity:1"
             d="M 0,0 C 0.263,0.076 0.511,0.189 0.745,0.343 0.979,0.497 1.187,0.68 1.367,0.894 1.549,1.108 1.698,1.343 1.814,1.598 1.931,1.854 1.998,2.113 2.017,2.379 1.602,2.553 1.174,2.642 0.735,2.647 0.297,2.652 -0.114,2.6 -0.496,2.491 -0.715,2.429 -0.941,2.343 -1.176,2.233 -1.411,2.123 -1.612,1.989 -1.78,1.833 -1.948,1.677 -2.071,1.496 -2.148,1.29 -2.226,1.083 -2.229,0.855 -2.157,0.605 -2.049,0.225 -1.801,-0.012 -1.415,-0.102 -1.028,-0.191 -0.557,-0.158 0,0 Z M 2.962,8.27 C 3.511,7.505 3.95,6.853 4.281,6.314 4.612,5.774 4.822,5.35 4.91,5.039 4.928,4.979 4.95,4.839 4.977,4.619 5.004,4.399 5.029,4.104 5.053,3.731 5.711,3.496 6.288,3.284 6.785,3.095 7.281,2.907 7.729,2.726 8.127,2.552 8.525,2.378 8.896,2.197 9.239,2.007 9.583,1.818 9.94,1.609 10.313,1.379 10.686,1.15 11.093,0.884 11.533,0.582 11.974,0.279 12.49,-0.08 13.081,-0.496 L 11.642,-2.287 C 9.242,-0.459 6.836,0.811 4.424,1.521 3.835,0.313 3.148,-0.566 2.367,-1.121 1.585,-1.674 0.729,-2.082 -0.199,-2.348 c -0.482,-0.136 -0.955,-0.173 -1.422,-0.111 -0.466,0.063 -0.894,0.203 -1.281,0.422 -0.388,0.221 -0.721,0.51 -1.001,0.869 -0.28,0.359 -0.485,0.77 -0.617,1.23 -0.13,0.461 -0.131,0.929 -0.001,1.405 0.13,0.475 0.355,0.921 0.674,1.337 0.319,0.416 0.719,0.784 1.201,1.106 0.481,0.321 1.011,0.564 1.59,0.729 0.296,0.084 0.736,0.117 1.32,0.1 C 0.848,4.721 1.589,4.65 2.486,4.527 L 2.42,4.947 C 2.314,5.317 1.957,5.887 1.348,6.656 Z" /></g><g
           transform="translate(352.0703,433.5526)"
           id="g368"><path
             id="path370"
             style="fill:#115786;fill-opacity:1;fill-rule:nonzero;stroke:none"
             d="M 0,0 C 0.729,0.257 1.401,0.257 2.017,0 2.632,-0.258 3.06,-0.725 3.299,-1.403 3.538,-2.081 3.501,-2.715 3.186,-3.307 2.87,-3.899 2.349,-4.324 1.62,-4.582 0.881,-4.843 0.208,-4.84 -0.398,-4.574 c -0.607,0.266 -1.03,0.738 -1.269,1.416 -0.24,0.677 -0.207,1.307 0.1,1.891 C -1.262,-0.684 -0.739,-0.261 0,0 m -7.535,15.384 c 0.547,-0.116 1.087,-0.238 1.62,-0.364 0.533,-0.126 1.054,-0.271 1.563,-0.434 0.51,-0.162 1.011,-0.36 1.503,-0.595 0.494,-0.235 0.964,-0.527 1.413,-0.876 C -2.445,11.642 -3.335,10.294 -4.102,9.073 -4.87,7.852 -5.518,6.744 -6.046,5.751 -4.703,5.839 -3.56,5.876 -2.614,5.862 -1.669,5.848 -0.772,5.756 0.077,5.587 0.927,5.418 1.791,5.163 2.671,4.822 3.551,4.481 4.579,4.044 5.757,3.51 L 0.549,18.241 Z M -16.263,14.652 5.37,22.299 6.109,20.207 2.831,19.048 10.127,-1.591 7.845,-2.397 6.746,0.711 C 5.972,1.299 5.043,1.805 3.959,2.228 2.875,2.651 1.738,2.976 0.55,3.202 -0.639,3.428 -1.841,3.553 -3.054,3.577 -4.268,3.601 -5.389,3.514 -6.415,3.317 l -2.821,1.588 c 0.517,0.99 1.166,2.097 1.944,3.322 0.777,1.225 1.7,2.563 2.768,4.011 -0.068,0.054 -0.273,0.139 -0.616,0.256 -0.341,0.116 -0.761,0.244 -1.256,0.384 -0.496,0.14 -1.032,0.276 -1.609,0.409 -0.578,0.132 -1.127,0.253 -1.647,0.362 -0.521,0.109 -0.97,0.187 -1.349,0.236 -0.379,0.048 -0.627,0.052 -0.745,0.01 l -3.776,-1.335 z" /></g><g
           transform="translate(352.0703,433.5526)"
           id="g372"><path
             id="path374"
             style="fill:none;stroke:#115786;stroke-width:0.40000001;stroke-linecap:butt;stroke-linejoin:miter;stroke-miterlimit:10;stroke-dasharray:none;stroke-opacity:1"
             d="M 0,0 C 0.729,0.257 1.401,0.257 2.017,0 2.632,-0.258 3.06,-0.725 3.299,-1.403 3.538,-2.081 3.501,-2.715 3.186,-3.307 2.87,-3.899 2.349,-4.324 1.62,-4.582 0.881,-4.843 0.208,-4.84 -0.398,-4.574 c -0.607,0.266 -1.03,0.738 -1.269,1.416 -0.24,0.677 -0.207,1.307 0.1,1.891 C -1.262,-0.684 -0.739,-0.261 0,0 Z m -7.535,15.384 c 0.547,-0.116 1.087,-0.238 1.62,-0.364 0.533,-0.126 1.054,-0.271 1.563,-0.434 0.51,-0.162 1.011,-0.36 1.503,-0.595 0.494,-0.235 0.964,-0.527 1.413,-0.876 C -2.445,11.642 -3.335,10.294 -4.102,9.073 -4.87,7.852 -5.518,6.744 -6.046,5.751 -4.703,5.839 -3.56,5.876 -2.614,5.862 -1.669,5.848 -0.772,5.756 0.077,5.587 0.927,5.418 1.791,5.163 2.671,4.822 3.551,4.481 4.579,4.044 5.757,3.51 L 0.549,18.241 Z M -16.263,14.652 5.37,22.299 6.109,20.207 2.831,19.048 10.127,-1.591 7.845,-2.397 6.746,0.711 C 5.972,1.299 5.043,1.805 3.959,2.228 2.875,2.651 1.738,2.976 0.55,3.202 -0.639,3.428 -1.841,3.553 -3.054,3.577 -4.268,3.601 -5.389,3.514 -6.415,3.317 l -2.821,1.588 c 0.517,0.99 1.166,2.097 1.944,3.322 0.777,1.225 1.7,2.563 2.768,4.011 -0.068,0.054 -0.273,0.139 -0.616,0.256 -0.341,0.116 -0.761,0.244 -1.256,0.384 -0.496,0.14 -1.032,0.276 -1.609,0.409 -0.578,0.132 -1.127,0.253 -1.647,0.362 -0.521,0.109 -0.97,0.187 -1.349,0.236 -0.379,0.048 -0.627,0.052 -0.745,0.01 l -3.776,-1.335 z" /></g><g
           transform="translate(354.166,454.7157)"
           id="g376"><path
             id="path378"
             style="fill:#115786;fill-opacity:1;fill-rule:nonzero;stroke:none"
             d="M 0,0 3.068,1.405 C 3.332,1.376 3.579,1.34 3.812,1.298 4.043,1.255 4.29,1.193 4.552,1.113 4.814,1.032 5.102,0.929 5.416,0.803 5.729,0.678 6.1,0.518 6.525,0.323 L 4.035,5.765 6.236,6.772 7.719,3.533 11.517,5.271 12.439,3.253 8.643,1.516 17.752,-18.39 15.551,-19.397 7.768,-2.39 c -0.596,0.563 -1.28,0.978 -2.05,1.244 -0.772,0.265 -1.579,0.336 -2.423,0.214 L 0.923,-2.018 Z" /></g><g
           transform="translate(354.166,454.7157)"
           id="g380"><path
             id="path382"
             style="fill:none;stroke:#115786;stroke-width:0.40000001;stroke-linecap:butt;stroke-linejoin:miter;stroke-miterlimit:10;stroke-dasharray:none;stroke-opacity:1"
             d="M 0,0 3.068,1.405 C 3.332,1.376 3.579,1.34 3.812,1.298 4.043,1.255 4.29,1.193 4.552,1.113 4.814,1.032 5.102,0.929 5.416,0.803 5.729,0.678 6.1,0.518 6.525,0.323 L 4.035,5.765 6.236,6.772 7.719,3.533 11.517,5.271 12.439,3.253 8.643,1.516 17.752,-18.39 15.551,-19.397 7.768,-2.39 c -0.596,0.563 -1.28,0.978 -2.05,1.244 -0.772,0.265 -1.579,0.336 -2.423,0.214 L 0.923,-2.018 Z" /></g><g
           transform="translate(380.1133,447.806)"
           id="g384"><path
             id="path386"
             style="fill:#115786;fill-opacity:1;fill-rule:nonzero;stroke:none"
             d="M 0,0 C 0.672,0.382 1.334,0.5 1.985,0.354 2.636,0.209 3.139,-0.176 3.494,-0.801 3.849,-1.426 3.923,-2.058 3.717,-2.696 3.511,-3.334 3.072,-3.844 2.4,-4.226 1.718,-4.613 1.055,-4.729 0.411,-4.573 c -0.643,0.156 -1.142,0.546 -1.498,1.171 -0.354,0.625 -0.433,1.251 -0.233,1.88 C -1.122,-0.895 -0.682,-0.387 0,0 M -0.02,13.016 C -0.271,12.79 -0.578,12.468 -0.942,12.052 -1.308,11.635 -1.688,11.173 -2.086,10.666 -2.484,10.158 -2.887,9.618 -3.293,9.046 -3.7,8.473 -4.079,7.92 -4.429,7.386 -4.779,6.852 -5.085,6.354 -5.347,5.895 -5.607,5.434 -5.786,5.058 -5.881,4.764 c 0.377,0.166 0.861,0.301 1.456,0.405 0.595,0.104 1.243,0.17 1.946,0.198 0.704,0.028 1.425,0.021 2.167,-0.019 C 0.43,5.308 1.145,5.235 1.832,5.128 2.521,5.021 3.146,4.886 3.71,4.721 4.274,4.557 4.71,4.364 5.019,4.144 Z M 10.896,-1.305 8.791,-2.5 6.894,0.842 C 6.559,1.155 6.075,1.449 5.441,1.724 4.808,2 4.088,2.243 3.281,2.456 2.475,2.669 1.619,2.839 0.717,2.967 -0.186,3.096 -1.072,3.167 -1.943,3.182 -2.814,3.196 -3.629,3.141 -4.388,3.016 -5.146,2.89 -5.777,2.685 -6.282,2.398 -6.391,2.336 -6.489,2.274 -6.578,2.212 -6.667,2.15 -6.743,2.083 -6.807,2.011 l -2.52,1.263 c 2.06,4.38 4.803,8.262 8.227,11.644 l -0.919,1.617 -13.221,-7.509 -1.096,1.93 18.307,10.396 1.095,-1.93 -2.979,-1.692 z" /></g><g
           transform="translate(380.1133,447.806)"
           id="g388"><path
             id="path390"
             style="fill:none;stroke:#115786;stroke-width:0.40000001;stroke-linecap:butt;stroke-linejoin:miter;stroke-miterlimit:10;stroke-dasharray:none;stroke-opacity:1"
             d="M 0,0 C 0.672,0.382 1.334,0.5 1.985,0.354 2.636,0.209 3.139,-0.176 3.494,-0.801 3.849,-1.426 3.923,-2.058 3.717,-2.696 3.511,-3.334 3.072,-3.844 2.4,-4.226 1.718,-4.613 1.055,-4.729 0.411,-4.573 c -0.643,0.156 -1.142,0.546 -1.498,1.171 -0.354,0.625 -0.433,1.251 -0.233,1.88 C -1.122,-0.895 -0.682,-0.387 0,0 Z M -0.02,13.016 C -0.271,12.79 -0.578,12.468 -0.942,12.052 -1.308,11.635 -1.688,11.173 -2.086,10.666 -2.484,10.158 -2.887,9.618 -3.293,9.046 -3.7,8.473 -4.079,7.92 -4.429,7.386 -4.779,6.852 -5.085,6.354 -5.347,5.895 -5.607,5.434 -5.786,5.058 -5.881,4.764 c 0.377,0.166 0.861,0.301 1.456,0.405 0.595,0.104 1.243,0.17 1.946,0.198 0.704,0.028 1.425,0.021 2.167,-0.019 C 0.43,5.308 1.145,5.235 1.832,5.128 2.521,5.021 3.146,4.886 3.71,4.721 4.274,4.557 4.71,4.364 5.019,4.144 Z M 10.896,-1.305 8.791,-2.5 6.894,0.842 C 6.559,1.155 6.075,1.449 5.441,1.724 4.808,2 4.088,2.243 3.281,2.456 2.475,2.669 1.619,2.839 0.717,2.967 -0.186,3.096 -1.072,3.167 -1.943,3.182 -2.814,3.196 -3.629,3.141 -4.388,3.016 -5.146,2.89 -5.777,2.685 -6.282,2.398 -6.391,2.336 -6.489,2.274 -6.578,2.212 -6.667,2.15 -6.743,2.083 -6.807,2.011 l -2.52,1.263 c 2.06,4.38 4.803,8.262 8.227,11.644 l -0.919,1.617 -13.221,-7.509 -1.096,1.93 18.307,10.396 1.095,-1.93 -2.979,-1.692 z" /></g></g></g></g></svg>